<svg xmlns="http://www.w3.org/2000/svg" viewBox="0 0 4680 3120"><defs><clipPath id="a"><path fill="none" d="M3701.06,2244.48c11.53-70.27-2.38-143.26-49.95-195.22-60.52-66.11-156.44-83.18-245.06-96.51-134.24-20.2-287.78-16.06-349.85-66.41-43.52-35.31-54.43-100.1-35.88-153s59.43-94.67,101.76-131.4c119.83-104,260.1-182.11,381.55-284.2s227.3-238,241.19-396c4.44-50.57-1.07-102.89-22.81-148.77-65-137.07-242.37-171.13-394-176.85A3163.66,3163.66,0,0,0,2830,616.63c-172.87,20.86-347.41,56-519.65,30.48-193.82-28.75-367.75-131.86-554.41-191.44-222.81-71.11-476.09-76.35-681.9,34.75s-346.68,355.19-293.86,583c36.26,156.4,151.55,280.77,265.32,394,41.44,41.26,86.85,93,74.85,150.21-6.27,29.87-27.54,54.23-49.94,75-71.37,66-160.38,109.26-240.77,164s-156.25,127.41-178.55,222.06c-26,110.42,29.31,225.66,114.57,302.46-17.46,18.8-26.6,38.18-26.6,58,0,178,737.91,322.36,1648.17,322.36s1648.17-144.33,1648.17-322.36C4035.39,2366,3910.87,2298.57,3701.06,2244.48Z"/></clipPath><clipPath id="b"><rect width="3671.32" height="558.68" x="540.74" y="2218.57" fill="none"/></clipPath><clipPath id="c"><path fill="#491721" d="M2937.89,2508.86l10.58-162.79s42.41-73.28,146.25-9.46c0,0,30.72,74.22,57.57,101.64,38.14,38.93,58.64,70.61,58.64,70.61Z"/></clipPath><clipPath id="d"><path fill="#491721" d="M2841.45,2398c-30.13,13.52-65.62,19.59-107.17-.79,0,0-16.52-50.74-62.54-21.24,0,0-53.16,59.45-132.15,75.47-109.54,22.2-114.46,73.2-114.46,73.2h449.56s-1.63-69.24-9-113C2863.85,2400.32,2851.91,2393.26,2841.45,2398Z"/></clipPath><clipPath id="e"><path fill="none" d="M3131.28,2409.67H2921.44l-7.67-122.14-42.92-684.73-4.29,681.83-.81,127-215.83-11.44s-.32-52.89-.16-128.63c.29-136.87,2.06-348.32,9.92-457.16,5.29-73.06,12.15-169.33,18.25-255.15,8-112.8,14.69-207.49,14.69-207.49.94-13,17.92-22.3,44.41-28.91,56.56-14.08,156.5-15.76,236.11-14.34,67.07,1.19,119.66,4.58,119.66,4.58l6.93,197.65,27.72,790.05Z"/></clipPath><clipPath id="f"><path fill="none" d="M2842.87,821.61s-105.13,0-142.19,45.12-85.41,288.45-85.41,288.45l-128.91-29-29,82.18s87,185.32,235.27,96.69c-1.61,38.67,0,46.73,0,46.73h375.46s74.13,1.61,109.58-33.84,4.84-375.46-56.4-449.59S2842.87,821.61,2842.87,821.61Z"/></clipPath><clipPath id="g"><path fill="none" d="M2962,551.56s8.48-31.16-34.37-42.07-70.4,24.15-109.2,21-6,17.14-6,17.14-57.77-17.14-73.35-.78-24.93,100.49,50.63,96.59,162.73,69.33,162.73,69.33S3096.88,616.22,2962,551.56Z"/></clipPath><clipPath id="h"><path fill="none" d="M2976.54,721.41c-13.24,9.88-22.85,6.66-30.95,7.42l6.12,62.25-57.11,35.53-23.49,28.08s-1.63-26.6-4.59-30.29-12.56-20-12.56-20V778.08h-4.2a77.83,77.83,0,0,1-77.59-77.59V634.72c0-1.12.09-2.28.18-3.37,2.28.77,29.38,9.46,62.4-8.45a38.57,38.57,0,0,1-16.26,11.23s53.38,3.55,72.51-19.6c0,18.86,27.72,46.26,36,54a51.77,51.77,0,0,1,4.94-4.49c18.15-14.1,42.86-12.71,55.15,3.14S2994.94,707.69,2976.54,721.41Z"/></clipPath><clipPath id="i"><path fill="none" d="M2936.31,1148.21s-49.24-77.9-63.21-90.79-105.28-21.49-104.2-6.45,74,24.71,74,24.71-82.59-6.55-74,8.54,67.69,24.76,67.69,24.76-68.76,2.15-58,14c8.12,8.93,36.47,16.34,49.85,19.42a1.21,1.21,0,0,1-.11,2.38c-13.71,1.75-41.75,6.29-36.84,13.65,6.44,9.67,51.41,14,51.41,14s28.62,47.26,63.27,59.08S2936.31,1148.21,2936.31,1148.21Z"/></clipPath></defs><g data-name="6"><rect width="4680" height="3120" fill="#fff" data-name="6" opacity="0"/><path fill="#e0eaf6" d="M3701.06,2244.48c11.53-70.27-2.38-143.26-49.95-195.22-60.52-66.11-156.44-83.18-245.06-96.51-134.24-20.2-287.78-16.06-349.85-66.41-43.52-35.31-54.43-100.1-35.88-153s59.43-94.67,101.76-131.4c119.83-104,260.1-182.11,381.55-284.21s227.3-238,241.19-396c4.44-50.57-1.07-102.89-22.81-148.77-65-137.07-242.37-171.13-394-176.85A3163.66,3163.66,0,0,0,2830,616.63c-172.87,20.86-347.41,56-519.65,30.48-193.82-28.75-367.75-131.86-554.41-191.44-222.81-71.11-476.09-76.35-681.9,34.75s-346.68,355.19-293.86,583c36.26,156.4,151.55,280.77,265.32,394,41.44,41.26,86.85,93,74.85,150.21-6.27,29.87-27.54,54.23-49.94,75-71.37,66-160.38,109.26-240.77,164s-156.25,127.41-178.55,222.06c-26,110.42,29.31,225.66,114.57,302.46-17.46,18.8-26.6,38.18-26.6,58,0,178,737.91,322.36,1648.17,322.36s1648.17-144.33,1648.17-322.36C4035.39,2366,3910.87,2298.57,3701.06,2244.48Z"/><g clip-path="url(#a)"><rect width="3671.32" height="558.68" x="540.74" y="2218.57" fill="#98cfe5"/><g clip-path="url(#b)" opacity=".6"><rect width="3775.42" height="11.97" x="492.51" y="2239.97" fill="#fff"/><rect width="3775.42" height="11.97" x="492.51" y="2322.87" fill="#fff"/><rect width="3775.42" height="11.97" x="492.51" y="2405.76" fill="#fff"/><rect width="3775.42" height="11.97" x="492.51" y="2488.65" fill="#fff"/><rect width="3775.42" height="11.97" x="492.51" y="2571.54" fill="#fff"/><rect width="3775.42" height="11.97" x="492.51" y="2654.43" fill="#fff"/><rect width="3775.42" height="11.97" x="492.51" y="2737.33" fill="#fff"/></g><ellipse cx="873.15" cy="2366.7" opacity=".2" rx="302.58" ry="40.02"/><path fill="#448396" d="M922.16,2248.26s-107.8,21.85-143,92.62a28.57,28.57,0,0,0,16.39,39.81c131.9,44,240.18,13.07,280.7-2.31a28.46,28.46,0,0,0,18.26-29.7C1085.22,2265.68,922.16,2248.26,922.16,2248.26Z"/><rect width="59.56" height="1118.2" x="899.83" y="1174.86" fill="#98cfe5" rx="11.48"/><circle cx="931.47" cy="1154.39" r="58.94" fill="#448396" transform="rotate(-11.98 931.565 1154.498)"/><path fill="#74afc1" d="M1124.7,691.3a27,27,0,0,0-10.42-2.1A27.4,27.4,0,0,0,1089,706l-16.47,39.53L920,1111.35a27.3,27.3,0,0,0,50.4,21L1086.44,854l52.94-127A27.35,27.35,0,0,0,1124.7,691.3Z"/><path d="M1124.7,691.3a27,27,0,0,0-10.42-2.1A27.4,27.4,0,0,0,1089,706l-16.47,39.53A345.39,345.39,0,0,0,1086.44,854l52.94-127A27.35,27.35,0,0,0,1124.7,691.3Z" opacity=".4"/><ellipse cx="1129.4" cy="633.83" fill="#448396" rx="44.67" ry="54.6" transform="rotate(-45 1129.37 633.83)"/><path fill="#98cfe5" d="M1205.81,596.29a146.86,146.86,0,0,0-21.34,5,153.49,153.49,0,0,0-42.67,21.37c-3.17,2.23-6.12,4.54-8.93,6.92-39.11,33.21-43.39,79.66-30.86,127.8,26.64,102.28,129.14,212.05,134.88,218.12v0s.1.11.13.13l.1.11,125-129.64,105.36-109.31V726.55S1334.42,576,1205.81,596.29Z"/><path fill="#448396" d="M1214.63,766.11c-21.89-25.76-30-60.83-30.16-94.62-.16-26.25,6-55,21.34-75.2a146.86,146.86,0,0,0-21.34,5,153.49,153.49,0,0,0-42.67,21.37c-3.17,2.23-6.12,4.54-8.93,6.92-39.11,33.21-43.39,79.66-30.86,127.8,35.17,104.09,129.48,212,134.88,218.12v0s.1.11.13.13l.1.11,125-129.64A779.77,779.77,0,0,1,1273.75,808C1252.06,797,1230.38,784.63,1214.63,766.11Z" opacity=".2"/><path fill="#161b3c" d="M1467.47,726.55c-33.24-28.15-86.55-23.46-136.4,7a217.94,217.94,0,0,0-20.59,14.18,253.79,253.79,0,0,0-38.23,36.78,246.36,246.36,0,0,0-37.93,60.38c-.82,1.94-1.64,3.84-2.42,5.77-21.86,54.32-17.65,107.85,15.67,136,47.09,39.83,134.5,13.88,195.26-58S1514.57,766.38,1467.47,726.55Z"/><path fill="#fff" d="M1331.07,733.55a217.94,217.94,0,0,0-20.59,14.18,253.79,253.79,0,0,0-38.23,36.78,246.36,246.36,0,0,0-37.93,60.38,93.66,93.66,0,0,0,8.78,5c42.93,21.63,92.51,9.83,110.75-26.39C1368.63,794.19,1358.32,757.82,1331.07,733.55Z"/><g opacity=".3"><ellipse cx="1834.38" cy="2517.31" opacity=".5" rx="562.1" ry="79.74"/><ellipse cx="2962.12" cy="2505.45" opacity=".5" rx="382.78" ry="67.88"/><ellipse cx="3495.28" cy="2332.71" opacity=".5" rx="302.58" ry="40.03"/></g></g><path fill="#316e7c" d="M1352.44,2448.08c-1.26,22.74,37.31,29.06,40.77,10.1s40.09-203.4,40.09-203.4l-65.69-20.21C1363.82,2287.63,1353.71,2425.34,1352.44,2448.08Z"/><path fill="#448396" d="M1556.25,2574.63c-7.58,25.27,22.87,28.83,31.84,12.42,10.76-19.67,121.89-286.79,121.89-286.79l-88.38-7.58S1563.83,2549.36,1556.25,2574.63Z"/><path fill="#316e7c" d="M1803.36,2432c-2.38,13.75,34.89,18.94,39.25,3.12,7.87-28.5,48-153.78,48-153.78h-59.38C1827.32,2307.15,1807.83,2406.06,1803.36,2432Z"/><path fill="#448396" d="M2220.38,2266.15l-94.13,15.16s103,224.88,115.6,250.15,48,20.21,43-8.84S2220.38,2266.15,2220.38,2266.15Z"/><path fill="#65a9c4" d="M2494.58,1769.74c-11.21-22.12-31.58-35.14-63.93-37.35-60.17-4.14-105.8-10.35-145.19-16.6s-74.66-39.39-80.91-85-12.43-176.32-20.75-224-27-49.78-136.87-49.78H1312.61c-42.18,0-95,5.9-120.06,31.52a49.47,49.47,0,0,0-14.32,32c-5.87,84.54-2.52,289.14,22.37,442.66s68.45,342.23,80.91,358.83,246.82,87.13,282.1,93.34,670-29,717.71-31.1,78.81-43.56,126.52-139,93.34-231.59,97.48-299.35c1.9-31.35-1-57.07-10.7-76.09Z"/><path fill="#8ac9dd" d="M1865.36,1886.66c-197.12,1.36-306.09,45.36-331.45,62.2l-1.43.94,25.92,41,.39.22c.73.4,70.56,38.36,138.27,38.36,3.08,0,6.16-.08,9.22-.25,13-.7,31.17-1.61,52.94-2.7,98.76-5,264.06-13.29,375.39-22.57,124.51-10.37,183.75-16.89,189.13-31.77,1.15-3.18-.07-6.56-3.61-10C2240.8,1884.07,2041.34,1885.44,1865.36,1886.66Z"/><path fill="#8ac9dd" d="M2494.58,1769.74c-44.77-10.35-77.77,6.35-111.67,43.67-47.64,52.37-67.93,159.14-78.32,227.59s-33.18,91.27-71,93.79c-41.63,2.8-388.63,33.94-482,27.72S1646.56,2027,1617.53,1952.28c-18.09-46.56-34.59-98.72-75.56-138.45l0,0a182.25,182.25,0,0,0-14.12-12.36c-42.32-27.1-124.72-13.91-133.66,75.6-10.11,101.08,63.14,276.68,109.91,342.37,46.36,65.18,67.8,97,117.54,96,.42,0,.8,0,1.21,0,166.11-4.38,618.53-29.44,658.51-31.17,47.71-2.07,78.81-43.56,126.52-139s93.34-231.59,97.48-299.35c1.9-31.35-1-57.07-10.7-76.09Z"/><path fill="#448396" d="M1504.06,2219.4c-46.77-65.69-120-241.29-109.91-342.37,8.94-89.51,91.34-102.7,133.66-75.6-23.13-18.33-53-33.07-92.82-42.08-128.59-29-163.87-64.27-197-134.8s-10.39-203.29-45.4-236.08a49.47,49.47,0,0,0-14.32,32c-5.87,84.54-2.52,289.14,22.37,442.66s68.45,342.23,80.91,358.83,246.82,87.13,282.1,93.34c5.63,1,26.58.94,58,.11C1571.86,2316.44,1550.42,2284.58,1504.06,2219.4Z"/><rect width="100.03" height="34.55" x="1497.93" y="1523.98" fill="#8ac9dd" rx="6"/><rect width="100.03" height="34.55" x="1718.68" y="1523.98" fill="#8ac9dd" rx="6"/><rect width="100.03" height="34.55" x="1939.43" y="1523.98" fill="#8ac9dd" rx="6"/><rect width="100.03" height="34.55" x="1497.93" y="1649.22" fill="#8ac9dd" rx="6"/><rect width="100.03" height="34.55" x="1718.68" y="1649.22" fill="#8ac9dd" rx="6"/><rect width="100.03" height="34.55" x="1939.43" y="1649.22" fill="#8ac9dd" rx="6"/><path fill="#98cfe5" d="M3372.38,1291.61c.1,2.88,9.37,289.17-29.36,394.08l3.75,1.38c20.4-55.26,27.37-159.92,29.61-238,2.43-84.49,0-156.89,0-157.61Z"/><path fill="#6badc1" d="M3358.31,1240.1a38.5,38.5,0,1,0,51,19.09A38.5,38.5,0,0,0,3358.31,1240.1Z"/><path fill="#98cfe5" d="M3447.7,1304.65c-21.3,6.56-106.49,363.71-106.49,363.71s-9.83-419.41-27.85-391.56,3.27,470.2,3.27,470.2l57.34,47.51S3469,1298.1,3447.7,1304.65Z"/><path fill="#6badc1" d="M3210.14,1357.08c-18,8.19,108.13,419.41,108.13,419.41l59-42.6S3228.16,1348.89,3210.14,1357.08Z"/><path fill="#98cfe5" d="M3415.11,1667.86a696.31,696.31,0,0,0-25.06,80.33l3.89.9c.33-1.42,33.43-142.79,101.06-212l-2.86-2.79C3456.35,1570.9,3430.5,1627.13,3415.11,1667.86Z"/><path fill="#6badc1" d="M3515.69,1480a38.5,38.5,0,1,0,38.5,38.5A38.5,38.5,0,0,0,3515.69,1480Z"/><path fill="#d6e7ed" d="M3451.07,1841.9a440.08,440.08,0,0,1-19.74-91v-43.24h-149.1v35.07a441.35,441.35,0,0,1-22.3,104.3,263.23,263.23,0,0,1-33.59,66,115.41,115.41,0,0,0-21.12,66.59V2309a29.59,29.59,0,0,0,29.49,29.49h244.11a29.57,29.57,0,0,0,29.49-29.49V1979.64a115.55,115.55,0,0,0-20.31-65.47C3472.59,1891.73,3459.63,1867.74,3451.07,1841.9Z"/><path fill="#fff" d="M3400.43,1841.9a440.67,440.67,0,0,1-19.76-91v-43.24h-98.44v35.07a441.35,441.35,0,0,1-22.3,104.3,263.23,263.23,0,0,1-33.59,66,115.41,115.41,0,0,0-21.12,66.59V2309a29.59,29.59,0,0,0,29.49,29.49h193.45a29.57,29.57,0,0,0,29.49-29.49V1979.64a115.55,115.55,0,0,0-20.31-65.47C3421.94,1891.73,3409,1867.74,3400.43,1841.9Z"/><g opacity=".8"><rect width="1054.56" height="767.77" x="1451.21" y="361.5" fill="#fff" rx="53.31"/><rect width="1054.56" height="767.77" x="1450.35" y="361.5" fill="#1642a4" rx="53.31"/><path fill="#fff" d="M2451.6,358.5H1503.66a56.37,56.37,0,0,0-56.31,56.31V1076a56.37,56.37,0,0,0,56.31,56.31H2451.6a56.37,56.37,0,0,0,56.31-56.31V414.81A56.37,56.37,0,0,0,2451.6,358.5ZM2501.91,1076a50.37,50.37,0,0,1-50.31,50.31H1503.66a50.37,50.37,0,0,1-50.31-50.31V414.81a50.37,50.37,0,0,1,50.31-50.31H2451.6a50.37,50.37,0,0,1,50.31,50.31Z"/><path fill="#fff" d="M2452.46,361.5H1504.53a53.31,53.31,0,0,0-53.31,53.31v6.44H2505.78v-6.44A53.32,53.32,0,0,0,2452.46,361.5Z"/><path fill="#709ae5" d="M1506.41,382.43a12.41,12.41,0,1,0,12.4,12.4A12.41,12.41,0,0,0,1506.41,382.43Z"/><circle cx="1543.08" cy="394.83" r="12.4" fill="#709ae5"/><circle cx="1579.76" cy="394.83" r="12.4" fill="#709ae5"/><path fill="#fff" d="M2292.33,830.15H1657.74a37.76,37.76,0,1,0,0,75.51h634.59a37.76,37.76,0,1,0,0-75.51Z"/><rect width="710.11" height="75.51" x="1619.98" y="951.76" fill="#fff" rx="13.98"/><circle cx="1762.94" cy="992.86" r="13.29" fill="#cc2e45"/><path fill="#cc2e45" d="M1808.52,979.57a13.29,13.29,0,1,0,13.29,13.29A13.3,13.3,0,0,0,1808.52,979.57Z"/><circle cx="1854.09" cy="992.86" r="13.29" fill="#cc2e45"/><path fill="#cc2e45" d="M1899.67,979.57A13.29,13.29,0,1,0,1913,992.86,13.29,13.29,0,0,0,1899.67,979.57Z"/><circle cx="1945.24" cy="992.86" r="13.29" fill="#cc2e45"/><path fill="#cc2e45" d="M1990.82,979.57a13.29,13.29,0,1,0,13.29,13.29A13.29,13.29,0,0,0,1990.82,979.57Z"/><circle cx="2036.39" cy="992.86" r="13.29" fill="#cc2e45"/><path fill="#cc2e45" d="M2082,979.57a13.29,13.29,0,1,0,13.29,13.29A13.29,13.29,0,0,0,2082,979.57Z"/><circle cx="2127.55" cy="992.86" r="13.29" fill="#cc2e45"/><path fill="#cc2e45" d="M2283.56,980.53a14.86,14.86,0,1,0-29.71,0v2h-2.26v26.78c0,4.62,34.32,4.62,34.32,0V982.55h-2.35ZM2271.23,996v7.73a2.46,2.46,0,0,1-2.58,2.38,2.28,2.28,0,0,1-2.37-2.38V996a4.51,4.51,0,0,1-2.39-4,4.76,4.76,0,1,1,9.52,0A4.76,4.76,0,0,1,2271.23,996Zm7.14-13.49h-19.22v-2c0-5.14,3.17-9.81,9.56-9.81s9.66,4.37,9.66,9.81Z"/><path fill="#cc2e45" d="M1947.65,856.83H1808.58a11.08,11.08,0,1,0,0,22.16h139.07a11.08,11.08,0,0,0,0-22.16Z"/><path fill="#cc2e45" d="M2131.07,856.83H1992a11.08,11.08,0,1,0,0,22.16h139.07a11.08,11.08,0,0,0,0-22.16Z"/><path fill="#cc2e45" d="M2268.93,847.25a9.71,9.71,0,0,0-9.71,9.71,9.48,9.48,0,0,0,2.08,6,9.63,9.63,0,0,0,15.18,0,9.48,9.48,0,0,0,2.08-6A9.7,9.7,0,0,0,2268.93,847.25Z"/><path fill="#cc2e45" d="M2251.78,876.83l-.19,7.14c0,6.13,34.4,6.13,34.4,0v-7.14C2283.21,866.66,2253.13,867.07,2251.78,876.83Z"/><path fill="#709ae5" d="M1868.93,767.3c0,16.25,212.21,16.25,212.21,0V621.09H1868.93ZM1975,651.77c14.46,0,26.19,11,26.19,24.54,0,10-6.34,18.55-15.46,22.39v41.14a10.39,10.39,0,0,1-10.39,10.39h-.69a10.39,10.39,0,0,1-10.39-10.39V698.7c-9.12-3.84-15.46-12.42-15.46-22.39C1948.84,662.76,1960.57,651.77,1975,651.77Z"/><path fill="#709ae5" d="M1975,518.85c-48.24,0-87.5,36.77-87.5,82v9.84H1909v-9.84c0-34.11,29.62-61.86,66-61.86s66,27.75,66,61.86v9.84h21.48v-9.84C2062.54,555.62,2023.28,518.85,1975,518.85Z"/><g opacity=".5"><path fill="#fff" d="M2117.83,496c-44-1.7-99.47,6.41-156.17,22.8S1853.74,558,1817.43,582.92c-37.21,25.54-54.51,50.64-48.72,70.67s33.83,32,78.92,33.75c3.83.14,7.74.22,11.74.22,41.93,0,92.67-8.06,144.43-23,56.7-16.4,107.92-39.16,144.24-64.09,37.2-25.54,54.51-50.63,48.71-70.66S2162.93,497.76,2117.83,496Zm26.81,99.47c-35.8,24.57-86.41,47-142.5,63.27S1891.26,683,1847.86,681.34c-41.69-1.6-68.44-12.33-73.38-29.42s12-40.44,46.34-64c35.8-24.58,86.41-47,142.51-63.27,51.23-14.82,101.38-22.79,142.74-22.79q5.89,0,11.53.21c41.7,1.61,68.44,12.33,73.39,29.42S2179,571.89,2144.64,595.5Z"/><path fill="#fff" d="M2209.22,669.15c-49.17-31.47-118-63.12-193.8-89.11s-149.56-43.25-207.7-48.59c-34.41-3.16-93.51-4.46-102.69,22.31s38.28,62,67.39,80.64c49.17,31.46,118,63.11,193.8,89.1s149.56,43.25,207.7,48.59c9.75.9,21.49,1.64,33.52,1.64,30.39,0,62.59-4.77,69.17-24C2285.79,723,2238.33,687.77,2209.22,669.15Zm61.72,78.69c-5.74,16.72-40.9,23.38-96.47,18.28-57.68-5.3-130.94-22.45-206.3-48.29s-143.74-57.27-192.52-88.49c-47-30.08-70.68-56.92-65-73.64,4.47-13,26.83-20,62.8-20,10.17,0,21.43.55,33.67,1.68,57.68,5.29,130.94,22.44,206.3,48.28S2157.2,643,2206,674.2C2253,704.28,2276.67,731.12,2270.94,747.84Z"/></g><path fill="#fff" d="M1731.28,717.82a18.37,18.37,0,1,0,18.37,18.37A18.37,18.37,0,0,0,1731.28,717.82Z"/><circle cx="2242.81" cy="573.54" r="8.78" fill="#fff"/><circle cx="1861.51" cy="484.5" r="7.42" fill="#fff"/></g><path fill="#fff" d="M2937.89,2508.86v64.47h288.55c4.13-35.88-15.51-64.47-15.51-64.47Z"/><path fill="#491721" d="M2937.89,2508.86l10.58-162.79s42.41-73.28,146.25-9.46c0,0,30.72,74.22,57.57,101.64,38.14,38.93,58.64,70.61,58.64,70.61Z"/><g clip-path="url(#c)"><path fill="#fff" d="M2927.7,2526.48a1.08,1.08,0,0,0,0-.16l-21.18.16Z"/><path fill="#fff" d="M3060.4,2454.21c-124.89,0-132.38,68.55-132.69,72.11l297-2.17S3188.63,2454.21,3060.4,2454.21Z"/></g><path fill="#fff" d="M3088,2423c-.41-.26-10.22-6.19-26.38-8.84-14.86-2.43-38.1-2.37-64.42,11.73a2,2,0,1,0,1.89,3.52c48.32-25.87,86.44-3.24,86.82-3A2,2,0,1,0,3088,2423Z"/><rect width="273.04" height="4" x="2937.88" y="2506.86" opacity=".4"/><path fill="#491721" d="M2841.45,2398c-30.13,13.52-65.62,19.59-107.17-.79,0,0-16.52-50.74-62.54-21.24,0,0-53.16,59.45-132.15,75.47-109.54,22.2-114.46,73.2-114.46,73.2h449.56s-1.63-69.24-9-113C2863.85,2400.32,2851.91,2393.26,2841.45,2398Z"/><g clip-path="url(#d)"><path fill="#fff" d="M2524.22,2436.27c-118.84,23-113.73,106.06-113.73,106.06l186.57,7.63C2574.06,2459.19,2524.22,2436.27,2524.22,2436.27Z"/></g><rect width="449.56" height="50.74" x="2425.13" y="2524.59" fill="#fff"/><path fill="#fff" d="M2583.14,2435.57a2,2,0,0,0,0,4h0a24.85,24.85,0,0,1,9.87,2.81c5.26,2.59,13,8.18,19.76,20a2,2,0,1,0,3.47-2C2602.08,2435.61,2583.93,2435.59,2583.14,2435.57Z"/><path fill="#fff" d="M2605.48,2423.64a2,2,0,0,0,0,4h0a24.85,24.85,0,0,1,9.87,2.81c5.26,2.59,13,8.17,19.76,20.05a2,2,0,1,0,3.47-2C2624.42,2423.68,2606.26,2423.66,2605.48,2423.64Z"/><path fill="#fff" d="M2628.28,2409.47a2,2,0,0,0-2,2,2,2,0,0,0,2,2h0a24.64,24.64,0,0,1,9.87,2.81c5.26,2.59,13,8.17,19.76,20a2,2,0,0,0,1.73,1,2,2,0,0,0,1-.27,2,2,0,0,0,.74-2.72C2647.22,2409.51,2629.08,2409.47,2628.28,2409.47Z"/><rect width="172.86" height="4" x="2425.13" y="2520.75" opacity=".4"/><path fill="#594c4e" d="M3099.73,1510.75l-6.93-197.65s-52.59-3.39-119.66-4.58c-79.61-1.42-179.55.26-236.11,14.34-26.49,6.61-43.47,15.92-44.41,28.91,0,0-6.67,94.69-14.69,207.49-6.1,85.82-13,182.09-18.25,255.15-7.86,108.84-9.63,320.29-9.92,457.16-.16,75.74.16,128.63.16,128.63l215.83,11.44.81-127,4.29-681.83,42.92,684.73,7.67,122.14h209.84l-3.83-108.87Z"/><g clip-path="url(#e)"><polygon points="2825.03 1602.8 2768.26 2411.47 2874.69 2439.35 2890.5 2187.51 2870.84 1602.8 2825.03 1602.8" opacity=".4"/><path d="M2971.49,1275.14s-16.12,203,159.79,243.31,73.94-280,73.94-280Z" opacity=".4"/></g><path fill="#968084" d="M2649.91,2322.87c-.16,75.73,0,77.33,0,77.33l215.83,11.44.81-73.2C2768.31,2348.32,2706.38,2326.15,2649.91,2322.87Z"/><path fill="#968084" d="M2917.61,2348.6l3.83,61.07h209.84l-2.63-74.83C3065.61,2330.9,2992.67,2353.24,2917.61,2348.6Z"/><path fill="#cc2d46" d="M2842.87,821.61s-105.13,0-142.19,45.12-85.41,288.45-85.41,288.45l-128.91-29-29,82.18s87,185.32,235.27,96.69c-1.61,38.67,0,46.73,0,46.73h375.46s74.13,1.61,109.58-33.84,4.84-375.46-56.4-449.59S2842.87,821.61,2842.87,821.61Z"/><g clip-path="url(#f)"><path fill="#ba1c3b" d="M3128,1355.24c-91.42-38.55-57.3-189.71-77.5-239.85s0-181.57,0-181.57-95.66,252.46-225.49,258.12-248.79-145.48-248.79-145.48l-154.75,203.81,58.69,84.73,159.74,86.46h389.17S3219.44,1393.79,3128,1355.24Z"/><path fill="#a51437" d="M2633.43,1219.14c-41.5,1.73-138.54-133.63-138.54-133.63s-294.58,255.61,191.74,351.12L2700,1071.9S2674.93,1217.41,2633.43,1219.14Z"/></g><polygon fill="#fff" points="2951.7 791.09 2853.96 803.25 2827.66 827.35 2827.66 883.5 2871.11 854.69 2919.51 890.9 2966.59 819.96 2966.43 819.67 2951.7 791.09"/><polygon fill="#d8d8d8" points="2827.66 883.5 2871.11 854.69 2861.07 835.47 2827.66 883.5"/><polygon fill="#d8d8d8" points="2918.97 881.51 2893.7 835.47 2871.11 854.69 2919.51 890.9 2966.59 819.96 2966.43 819.67 2918.97 881.51"/><path fill="#426ac4" d="M2962,551.56s8.48-31.16-34.37-42.07-70.4,24.15-109.2,21-6,17.14-6,17.14-57.77-17.14-73.35-.78-24.93,100.49,50.63,96.59,162.73,69.33,162.73,69.33S3096.88,616.22,2962,551.56Z"/><g clip-path="url(#g)"><path fill="#2c57a3" d="M2975.43,576.31c-6.38-4.56-14.75-6.78-22.27-4.55a44.64,44.64,0,0,1,3.42,35.37c-1.83-9.44-5.28-20.68-14.62-23-9.75-2.4-18.16,6.77-24,14.93a190.77,190.77,0,0,1,21.34-31l6.69-14.33c-4.78-8.47-9.74-17.15-17.33-23.23s-18.56-9-27.21-4.54c-6.06,3.1-10.11,9.24-16.15,12.36-13.09,6.77-31.31-2.39-42.86,6.77,5.28,1.73,5.72,9.78,2,13.89s-9.66,5.24-15.15,6c-15,2.22-31.19,3.56-44.76-3.33-4.65-2.36-8.92-5.66-14-6.93s-11.45.34-13.32,5.21a11,11,0,0,0,0,7c3.52,12.06,17.55,18.32,22.23,30-6.65.67-11.86-6-18.44-7.19-7.63-1.4-14.47,4.7-19.41,10.68-7.72,9.36-14.49,20.35-14.9,32.47-.69,20,17.48,37.34,37.29,39.8,9.13,1.13,18.35-.31,27.51-1.18a225.44,225.44,0,0,1,139.69,33c12.49,7.82,25.3,18.84,26,33.56,12.19-11.4,4.3-32.79,12.16-47.51,3.94-7.38,11.37-12.16,16.73-18.58s8.22-16.77,2.33-22.71c-3.37-3.39-9.56-6.16-8.1-10.72.77-2.38,3.4-3.49,5.53-4.81,6.17-3.81,9.47-11.24,9.69-18.49s-2.26-14.32-5.52-20.8C2986.44,587.52,2981.82,580.86,2975.43,576.31Z"/></g><path fill="#ebafb5" d="M2931.94,664.07a51.77,51.77,0,0,0-4.94,4.49c-8.28-7.77-36-35.17-36-54-19.13,23.15-72.51,19.6-72.51,19.6a38.57,38.57,0,0,0,16.26-11.23c-33,17.91-60.12,9.22-62.4,8.45-.09,1.09-.18,2.25-.18,3.37v65.77a77.83,77.83,0,0,0,77.59,77.59h4.2v26.36s9.61,16.26,12.56,20,4.59,30.29,4.59,30.29l23.49-28.08,57.11-35.53-6.12-62.25c8.1-.76,17.71,2.46,30.95-7.42,18.4-13.72,22.88-38.36,10.55-54.2S2950.09,650,2931.94,664.07Z"/><g clip-path="url(#h)"><path fill="#ef8998" d="M2799.08,634.57c.51-.14,1-.26,1.52-.41A3.93,3.93,0,0,0,2799.08,634.57Z"/><path fill="#ef8998" d="M2913.6,573.53c-5.95-15.4-16.36-29.74-31.21-36.95-11.09-5.39-23.79-6.45-36.12-6.1A173.82,173.82,0,0,0,2726,584.61l31.9,50.84a88.43,88.43,0,0,0,41.14-.88,3.93,3.93,0,0,1,1.52-.41c-.5.15-1,.27-1.52.41-3.08,1.56-3.4,7.24-.53,9.86,3.28,3,8.23,3,12.67,2.8,9.35-.39,18.74-.79,27.92-2.6a92.2,92.2,0,0,0,39.7-18.51,70.56,70.56,0,0,0,49.72,38.24q-2.52-21.21-5-42.44C2921.55,605.52,2919.55,588.93,2913.6,573.53Z"/></g><path fill="#ef8998" d="M2854,778.08v25.18c18.95-8.75,42.42-24.53,49.51-50.54C2879.83,782.28,2854,778.08,2854,778.08Z"/><path fill="#6b2e00" d="M2893.09,657.52a24.59,24.59,0,0,0-7.28-4.41,21.7,21.7,0,0,0-8.31-1.43,28.1,28.1,0,0,0-8.06,1.4,33.26,33.26,0,0,0-3.73,1.48,28.32,28.32,0,0,0-3.58,2,2,2,0,0,0,2,3.42l.12-.06a25.25,25.25,0,0,1,3.09-1.42,28.38,28.38,0,0,1,3.32-1.05,23,23,0,0,1,6.72-.7,16.38,16.38,0,0,1,6.26,1.53,18.64,18.64,0,0,1,5.23,3.7l.22.2.13.11a3,3,0,0,0,3.82-4.74Z"/><path fill="#6b2e00" d="M2822.74,652.58a24.19,24.19,0,0,0-8.18-2.34,21.55,21.55,0,0,0-8.4.81,27.88,27.88,0,0,0-7.4,3.47,31.62,31.62,0,0,0-3.21,2.41,26.92,26.92,0,0,0-2.94,2.84,2,2,0,0,0,2.89,2.76l.09-.09a25.08,25.08,0,0,1,2.61-2.18,27.43,27.43,0,0,1,2.92-1.89,23.16,23.16,0,0,1,6.3-2.44,16.15,16.15,0,0,1,6.45-.17,18.34,18.34,0,0,1,6,2.18l.27.14.15.07a3,3,0,1,0,2.44-5.57Z"/><path fill="#ef8998" d="M2829.79,682.9s-25.81,34.71-7.68,40.73c13.35,4.44,15.4-3.2,17-9.6S2839.2,676.59,2829.79,682.9Z"/><path fill="#6b2e00" d="M2803.63,674.92a10,10,0,1,0,10.53,9.52A10,10,0,0,0,2803.63,674.92Z"/><path fill="#6b2e00" d="M2870.61,674.92a10,10,0,1,0,10.53,9.52A10,10,0,0,0,2870.61,674.92Z"/><path fill="#ea4262" d="M2900,687.65a25.33,25.33,0,1,0,22.31,28A25.32,25.32,0,0,0,2900,687.65Z"/><path fill="#ef8998" d="M2956.82,682.06a14.65,14.65,0,0,0-7.58,7,21,21,0,0,0-2.21,9.77,26.72,26.72,0,0,0,1.83,9.48c.46-3.2.76-6.26,1.31-9.21a29.35,29.35,0,0,1,2.61-8.18,15.2,15.2,0,0,1,5.45-6,23.45,23.45,0,0,1,8.37-3.13A14.23,14.23,0,0,0,2956.82,682.06Z"/><path fill="#ef8998" d="M2962.35,691.9a7.54,7.54,0,0,0-2.53-1.88,7.43,7.43,0,0,0-3-.66,8.07,8.07,0,0,0-5.17,1.76,41.85,41.85,0,0,1,4.63,1.34,7.64,7.64,0,0,1,3,2.08,13.31,13.31,0,0,1,2.05,3.43c.61,1.37,1.15,2.88,1.85,4.57a9.29,9.29,0,0,0,1.21-5.24A8.9,8.9,0,0,0,2962.35,691.9Z"/><path fill="#6b2e00" d="M2862,736.12c-17.56,13.85-32.54,3.81-33.17,3.38a2,2,0,0,0-2.28,3.28A29.36,29.36,0,0,0,2838,747a30.49,30.49,0,0,0,4.7.37c6,0,13.67-1.75,21.74-8.12a2,2,0,1,0-2.47-3.14Z"/><path fill="#f46e00" d="M2854.46,937.75a9,9,0,0,0-9.49-8.48l-369.84,20.94a9,9,0,0,0-8.47,9.49l14.6,257.85a9,9,0,0,0,9.49,8.48l369.83-20.94a9,9,0,0,0,8.48-9.49Z"/><path fill="#ff9739" d="M2849.87,1114.28l-8.46-149.07a23.41,23.41,0,0,0-24.62-22L2475.6,962.54a23.4,23.4,0,0,0-21.37,17.87,22.27,22.27,0,0,0-.63,6.75l13,229.21a23.42,23.42,0,0,0,24.62,22L2832.41,1219a23.41,23.41,0,0,0,22-24.61Z"/><path fill="#ffb278" d="M2849.87,1114.28a198,198,0,0,0-32.53-13.59c-39.43-12.61-81.37-14.48-122.72-16.14s-83.26-3.34-122.81-15.53a238.26,238.26,0,0,1-70.43-35.43c-19.09-14-36.52-32.3-47.15-53.18a22.27,22.27,0,0,0-.63,6.75l13,229.21a23.42,23.42,0,0,0,24.62,22L2832.41,1219a23.41,23.41,0,0,0,22-24.61Z" opacity=".4"/><path fill="#fff" d="M2698.2,1101.44a46.17,46.17,0,0,1-12,15.2c-10,8.34-23,12.65-35.81,13.15s-25.87-2.92-36.25-10.22a45.43,45.43,0,0,1-12.93-13.53,37.2,37.2,0,0,1-2-35.66,45.8,45.8,0,0,1,11.32-14.9,56.23,56.23,0,0,1,16.19-9.91,63.16,63.16,0,0,1,18.68-4.33c12.81-1,26.14,1.87,37.06,9a46.22,46.22,0,0,1,13.69,13.74,39.17,39.17,0,0,1,6,18.44,39.23,39.23,0,0,0-5.87-18.52,47.7,47.7,0,0,0-13.5-14.12c-10.8-7.57-24.25-11.06-37.49-10.57a65.83,65.83,0,0,0-19.55,3.76,57.61,57.61,0,0,0-17.45,9.87,48,48,0,0,0-12.56,15.87,40,40,0,0,0,2.23,39.34,48.18,48.18,0,0,0,14.27,14.34c11.34,7.43,25.1,10.34,38.3,9.37s26.18-6,36.05-14.72a47.64,47.64,0,0,0,11.83-15.56,39.33,39.33,0,0,0,3.74-19.06A39.21,39.21,0,0,1,2698.2,1101.44Z" opacity=".5"/><path fill="#ebafb5" d="M2873.1,1057.42c-14-12.89-105.28-21.49-104.2-6.45s74,24.71,74,24.71-82.59-6.55-74,8.54,67.69,24.76,67.69,24.76-68.76,2.15-58,14c8.12,8.93,36.47,16.34,49.85,19.42a1.21,1.21,0,0,1-.11,2.38c-13.71,1.75-41.75,6.29-36.84,13.65,6.44,9.67,51.41,14,51.41,14s28.62,47.26,63.27,59.08,30.17-83.24,30.17-83.24S2887.07,1070.31,2873.1,1057.42Z"/><g clip-path="url(#i)"><path fill="#ef8998" d="M2926.55,1185.07c-12.54,5.08-27.06,6.72-39.55,1.49-13.43-5.63-23.71-18.71-38.17-20.45-6.49-.79-13,.87-19.5,1.47a60.64,60.64,0,0,1-44-13.81l1.1,25c13.27,20.93,30.51,39.58,51.44,52.84s45.67,21,70.43,20c10.5-.4,21.23-2.45,30.07-8.14,12.25-7.89,19.43-22,22.16-36.32s1.56-29.06.38-43.59C2950.07,1171.74,2939.1,1180,2926.55,1185.07Z"/><path fill="#ef8998" d="M2842.43,1136.59c-17.63-6.55-36.95-6.8-55.13-11.63-7-1.85-14.15-4.63-18.73-10.23l-14.47,3,49.12,20.12c6,2.46,12.09,4.94,18.52,5.84a39.19,39.19,0,0,0,21.72-3.24,2.44,2.44,0,0,0,1.22-.94C2845.34,1138.29,2843.75,1137.08,2842.43,1136.59Z"/><path fill="#ef8998" d="M2845.44,1098.13c-13.6-1.89-27.47-.59-41.11-2.15s-27.88-6.67-35.61-18l-10,10.68c4.17,4.19,10,6.17,15.63,8l31.52,10.38c7,2.29,14,4.6,21.35,4.79s15-2,19.87-7.54c1.28-1.46,2.29-3.8.93-5.18A4.31,4.31,0,0,0,2845.44,1098.13Z"/><path fill="#ef8998" d="M2767.41,1045.34l-13.31,5.28c1.06,3.65,4.37,6.28,7.92,7.63s7.41,1.65,11.17,2.17c19.85,2.75,38.36,11.89,58.17,14.88,5.78.87,12.19,1.06,16.9-2.4-19.38-13-45.53-8.14-67.78-15.27C2774.42,1055.68,2767.82,1051.69,2767.41,1045.34Z"/></g><path fill="#cc2d46" d="M3032.74,1002.09c-3.33,29,24.06,157.92,24.06,157.92l-116-22.56-41.55,99.91s65.82,64.73,197.86,111.2L3056.8,910.24S3036.07,973.09,3032.74,1002.09Z"/><polygon fill="#fff" points="2940.41 1139.38 2941.98 1139.68 2942.59 1138.21 2940.41 1139.38"/><path fill="#fff" d="M2900.84,1238l.47-1.13-.86-.78Z"/><path fill="#fff" d="M3077.13,1340.83l-3.33-1.28c-1.11-.42-2.2-.91-3.3-1.37l-13.14-5.55-6.56-2.78-6.48-3-12.94-6c-4.28-2-8.5-4.24-12.76-6.35l-6.37-3.19c-2.13-1-4.19-2.23-6.3-3.33l-12.55-6.74c-16.55-9.33-32.76-19.25-48.38-30l-5.84-4.07c-2-1.34-3.83-2.79-5.75-4.18l-5.73-4.22-5.61-4.35c-7.15-5.59-14.22-11.37-20.78-17.51l-.47,1.13-.39-1.91.86.78,40.67-97.21-1.57-.31,2.19-1.17-.62,1.48,27.43,5.34,29,5.58,58,11.16,2.66.51-.56-2.64c-4.42-20.77-8.49-41.63-12.45-62.49s-7.63-41.8-10.36-62.83c-.66-5.26-1.29-10.53-1.7-15.8a104.89,104.89,0,0,1-.33-15.73c.59-5.21,1.42-10.45,2.48-15.64l.78-3.9.85-3.88c.56-2.59,1.17-5.18,1.8-7.76,2.47-10.32,5.23-20.58,8.12-30.8s5.89-20.42,9.05-30.57c-6.85,20.12-13.15,40.44-18.58,61-.68,2.57-1.34,5.15-1.95,7.74l-.94,3.89-.86,3.9a159.87,159.87,0,0,0-2.79,15.79,105.55,105.55,0,0,0,.13,16.11c.35,5.33.91,10.63,1.51,15.92,2.48,21.16,6,42.16,9.61,63.12,1.82,10.48,3.81,20.93,5.83,31.37q2.8,14.33,5.75,28.63l2.64.52-2.1,2.13c-.19-.88-.36-1.76-.54-2.65l-55.35-10.88-29-5.7-29-5.63-1.58-.3-.61,1.48-41.35,100-.47,1.12.86.79c14.12,13.12,29.5,24.41,45.32,35.11s32.25,20.4,49,29.56l12.68,6.6c2.12,1.09,4.2,2.25,6.36,3.26l6.44,3.09c4.31,2,8.59,4.14,12.92,6.11l13.09,5.73,6.54,2.87,6.64,2.65,13.26,5.29c2.2.91,4.44,1.72,6.69,2.51l6.72,2.39,13.45,4.79-13.31-5.15Z"/><path fill="#fff" d="M3057.15,1158.25l-2.64-.52c.18.89.35,1.77.54,2.65Z"/><path fill="#fff" d="M3102,1177.16l-8.64-3.59c-5.75-2.4-11.56-4.67-17.34-7l-15.25-5.94c0,.07-.09.13-.13.19a19.17,19.17,0,0,0-1,1.66l-1.09-2.69,2.18.84c.34-.5.68-1,1.05-1.47a27.56,27.56,0,0,1,2.72-3.1,34.12,34.12,0,0,1,6.57-5.06,41.34,41.34,0,0,1,15.88-5.26,67.38,67.38,0,0,1,17.19.29,122.83,122.83,0,0,1,17.08,3.8,89.22,89.22,0,0,0-16.74-5.68,61.88,61.88,0,0,0-17.83-1.45,41.79,41.79,0,0,0-17.45,5.07,34.18,34.18,0,0,0-7.42,5.52,32.06,32.06,0,0,0-3.12,3.46c-.48.62-.94,1.26-1.38,1.91a24.27,24.27,0,0,0-1.25,2.14l-1,1.92,2,.78,17.49,6.64c5.86,2.13,11.69,4.34,17.57,6.41l8.82,3.12,8.85,3c5.92,2,11.83,4,17.82,5.78-5.66-2.67-11.38-5.15-17.1-7.65Z"/><path fill="#fff" d="M3059.68,1162.46a19.17,19.17,0,0,1,1-1.66c0-.06.09-.12.13-.19l-2.18-.84Z"/><rect width="48.84" height="26.3" x="2441.98" y="1172.35" fill="#ef8998" rx="3.5" transform="rotate(-15.42 2466.751 1185.616)"/><rect width="64.81" height="26.3" x="2428.09" y="1143.79" fill="#ef8998" rx="3.5" transform="rotate(-15.42 2460.839 1157.06)"/><rect width="48.84" height="26.3" x="2414.15" y="1094.73" fill="#ef8998" rx="3.5" transform="rotate(-15.42 2438.937 1107.986)"/><rect width="58.23" height="26.3" x="2422.23" y="1117.77" fill="#ef8998" rx="3.5" transform="rotate(-15.42 2451.725 1131.041)"/><rect width="48.84" height="26.3" x="2432.47" y="1172.35" fill="#ebafb5" rx="3.5" transform="rotate(-15.42 2457.237 1185.606)"/><rect width="64.81" height="26.3" x="2418.58" y="1143.79" fill="#ebafb5" rx="3.5" transform="rotate(-15.42 2451.362 1157.055)"/><rect width="48.84" height="26.3" x="2404.64" y="1094.73" fill="#ebafb5" rx="3.5" transform="rotate(-15.42 2429.423 1107.977)"/><rect width="58.23" height="26.3" x="2412.72" y="1117.77" fill="#ebafb5" rx="3.5" transform="rotate(-15.42 2442.21 1131.032)"/><path fill="#fff" d="M2819.18,665.84a27.74,27.74,0,0,0-8.54-7,25.16,25.16,0,0,0-22-.72,27.82,27.82,0,0,0-9.28,6.77,30.81,30.81,0,0,0-6,9.88,32.53,32.53,0,0,0,0,22.73,31.24,31.24,0,0,0,6,9.87,27.86,27.86,0,0,0,9.29,6.77,25.14,25.14,0,0,0,22-.72,27.57,27.57,0,0,0,8.54-7,30.65,30.65,0,0,0,5.32-9.55,32.25,32.25,0,0,0,1.8-10.74,32.48,32.48,0,0,1-1.94,10.69,28.94,28.94,0,0,1-5.6,9.24,25.76,25.76,0,0,1-8.64,6.27,23.12,23.12,0,0,1-10.3,2,24.36,24.36,0,0,1-17.86-9.2,28.51,28.51,0,0,1-4.95-8.92,30.63,30.63,0,0,1,5-29.05,24.38,24.38,0,0,1,17.84-9.19,23.3,23.3,0,0,1,10.31,2,25.92,25.92,0,0,1,8.64,6.28,29.25,29.25,0,0,1,5.6,9.23,32.49,32.49,0,0,1,1.94,10.7,32.26,32.26,0,0,0-1.8-10.75A30.65,30.65,0,0,0,2819.18,665.84Z"/><path fill="#fff" d="M2886.59,670.39a27.6,27.6,0,0,0-8.54-7,25.16,25.16,0,0,0-22-.72,27.62,27.62,0,0,0-9.29,6.77,30.79,30.79,0,0,0-6,9.88,33.61,33.61,0,0,0-2.06,11.36,34,34,0,0,0,2.06,11.37,31.06,31.06,0,0,0,6,9.87,28,28,0,0,0,9.28,6.77,25.16,25.16,0,0,0,22-.72,27.67,27.67,0,0,0,8.53-7,30.59,30.59,0,0,0,5.32-9.56,31.91,31.91,0,0,0,1.8-10.74,31.88,31.88,0,0,1-1.94,10.69,28.83,28.83,0,0,1-5.6,9.24,25.78,25.78,0,0,1-8.63,6.28,23.31,23.31,0,0,1-10.31,2,24.38,24.38,0,0,1-17.86-9.2,28.28,28.28,0,0,1-4.94-8.92,30.66,30.66,0,0,1,4.95-29,24.35,24.35,0,0,1,17.85-9.19,23.3,23.3,0,0,1,10.31,2,26.1,26.1,0,0,1,8.63,6.27,28.94,28.94,0,0,1,5.6,9.24,31.93,31.93,0,0,1,1.94,10.69,32,32,0,0,0-1.8-10.74A30.51,30.51,0,0,0,2886.59,670.39Z"/><path fill="#fff" d="M2833.44,684.47c-5.14.12-8.62,4.84-8.76,5a2,2,0,0,0,3.23,2.35s2.49-3.33,5.64-3.39h.08c1.85,0,3.71,1.17,5.55,3.46a2,2,0,0,0,1.56.75,2,2,0,0,0,1.56-3.25Q2838.28,684.39,2833.44,684.47Z"/><path fill="#fff" d="M2624.92,644.73H2361.37a29.17,29.17,0,0,0-29.09,29.09V801.47a29.17,29.17,0,0,0,29.09,29.08H2537L2581.12,900V830.55h43.8A29.16,29.16,0,0,0,2654,801.47V673.82A29.17,29.17,0,0,0,2624.92,644.73Z"/><polygon fill="#3c5cc9" points="2377.45 709.53 2376.72 708.54 2376.17 709.35 2377.45 709.53"/><polygon fill="#3c5cc9" points="2373.85 712.72 2373.85 713.69 2374.21 714.17 2373.85 712.72"/><polygon fill="#3c5cc9" points="2378.4 715.5 2379.22 714.33 2379.22 712.36 2378.4 715.5"/><path fill="#3c5cc9" d="M2386.51,696.19a2.75,2.75,0,0,0-2.28,1.36l-7.51,11,.72,1-1.27-.18.55-.81-8-11.08a2.75,2.75,0,0,0-2.23-1.27,3.07,3.07,0,0,0-2,.77,2.45,2.45,0,0,0-1,2,2.93,2.93,0,0,0,.19,1,3.84,3.84,0,0,0,.63,1.14l9.48,12.59v-1l.36,1.45-.36-.48v11.73a2.69,2.69,0,0,0,.79,2,2.66,2.66,0,0,0,1.94.79,2.55,2.55,0,0,0,1.85-.79,2.69,2.69,0,0,0,.79-2v-11.1l-.82,1.18.82-3.15v2l9.52-13.63a2.9,2.9,0,0,0,.39-.84,3.59,3.59,0,0,0,.11-.84,2.78,2.78,0,0,0-2.73-2.82Z"/><path fill="#3c5cc9" d="M2417.14,700.67a14.86,14.86,0,0,0-4.92-3.53,15,15,0,0,0-6.22-1.27,14.75,14.75,0,0,0-11.09,4.8,16.2,16.2,0,0,0-3.21,5.22,18.39,18.39,0,0,0,0,12.75,16.26,16.26,0,0,0,3.21,5.21,14.87,14.87,0,0,0,4.9,3.54,15,15,0,0,0,6.19,1.27,15.2,15.2,0,0,0,6.22-1.27,14.75,14.75,0,0,0,4.92-3.54,16.26,16.26,0,0,0,3.21-5.21,18.39,18.39,0,0,0,0-12.75A16.2,16.2,0,0,0,2417.14,700.67Zm-2.8,17.13a10.06,10.06,0,0,1-3.37,3.94,9.23,9.23,0,0,1-9.93,0,9.94,9.94,0,0,1-3.35-3.94,13.31,13.31,0,0,1,0-11.09,9.94,9.94,0,0,1,3.35-3.92,9.17,9.17,0,0,1,9.93,0,10,10,0,0,1,3.37,3.94,13.07,13.07,0,0,1,0,11.07Z"/><path fill="#3c5cc9" d="M2449.36,696.28a2.32,2.32,0,0,0-1.86.79,3,3,0,0,0-.69,2v16.48a7.12,7.12,0,0,1-3.78,6.52,7.59,7.59,0,0,1-3.64.91,7,7,0,0,1-3.44-.91,6.9,6.9,0,0,1-2.59-2.58,7.56,7.56,0,0,1-1-3.94V699.06a2.62,2.62,0,0,0-.85-2,2.68,2.68,0,0,0-1.89-.79,2.86,2.86,0,0,0-2.09.79,2.67,2.67,0,0,0-.82,2v16.48a13.59,13.59,0,0,0,1.62,6.7,11.62,11.62,0,0,0,4.46,4.55,14,14,0,0,0,13.14,0,11.77,11.77,0,0,0,4.44-4.55,13.59,13.59,0,0,0,1.62-6.7V699.06a2.84,2.84,0,0,0-.73-2A2.49,2.49,0,0,0,2449.36,696.28Z"/><path fill="#3c5cc9" d="M2478.47,714.49a7.78,7.78,0,0,0,.89-.5,8,8,0,0,0-.84-.54Z"/><polygon fill="#3c5cc9" points="2463.85 716.59 2464.53 716.59 2464.53 715.54 2463.85 716.59"/><path fill="#3c5cc9" d="M2483.84,723.74a1.6,1.6,0,0,1-.79-.91,5.52,5.52,0,0,1-.27-1.46c-.05-.57-.13-1.24-.25-2a7.26,7.26,0,0,0-.57-2.3,7.14,7.14,0,0,0-2.6-3.08,7.78,7.78,0,0,1-.89.5l.05-1a8,8,0,0,1,.84.54,9.08,9.08,0,0,0,1.82-1.55,10.24,10.24,0,0,0,1.91-3,8.34,8.34,0,0,0,.71-3.38,10.11,10.11,0,0,0-1.27-5.08,9.67,9.67,0,0,0-3.35-3.46,8.5,8.5,0,0,0-4.44-1.25h-13.12a2.69,2.69,0,0,0-2,.8,2.65,2.65,0,0,0-.8,2v26.32a2.43,2.43,0,0,0,1,2,3.57,3.57,0,0,0,2.28.79,2.16,2.16,0,0,0,1.78-.79,3.1,3.1,0,0,0,.63-2v-8.83h-.68l.68-1.05v1.05h8.52a5.8,5.8,0,0,1,1.82.25,3.13,3.13,0,0,1,2.05,1.87,3.75,3.75,0,0,1,.27,1.43,13.09,13.09,0,0,0,.48,3.88,6.73,6.73,0,0,0,1.26,2.39,6.42,6.42,0,0,0,1.55,1.34,4.38,4.38,0,0,0,1.27.43,3.68,3.68,0,0,0,1.55,0,2.32,2.32,0,0,0,1.8-2.73A2.58,2.58,0,0,0,2483.84,723.74Zm-6.46-14.64a5.71,5.71,0,0,1-1.28,2,2.29,2.29,0,0,1-1.59.75h-10V713l-.63-1.09h.63V701.56H2464l.54-1.46v1.46h10a3,3,0,0,1,2.3,1.34,5.25,5.25,0,0,1,1.07,3.35A8,8,0,0,1,2477.38,709.1Z"/><polygon fill="#3c5cc9" points="2464.53 712.99 2464.53 711.9 2463.9 711.9 2464.53 712.99"/><polygon fill="#3c5cc9" points="2463.99 701.56 2464.53 701.56 2464.53 700.1 2463.99 701.56"/><path fill="#3c5cc9" d="M2524.41,721.83a3.18,3.18,0,0,0-1.89.32,8.55,8.55,0,0,1-2.37.82,13.64,13.64,0,0,1-2.46.22,12.67,12.67,0,0,1-4.15-.66,8.89,8.89,0,0,1-3.32-2,9.41,9.41,0,0,1-2.21-3.42,13.32,13.32,0,0,1-.8-4.83,12.63,12.63,0,0,1,.71-4.32,9.57,9.57,0,0,1,2.07-3.4,9.22,9.22,0,0,1,3.3-2.21,11.9,11.9,0,0,1,4.4-.77,11.61,11.61,0,0,1,2.53.27,11.33,11.33,0,0,1,2.3.78,3.55,3.55,0,0,0,1.89.36,2,2,0,0,0,1.52-.91,2.78,2.78,0,0,0,.66-2.32,2.42,2.42,0,0,0-1.39-1.87,15.56,15.56,0,0,0-3.59-1.32,17.15,17.15,0,0,0-3.92-.46,17.52,17.52,0,0,0-6.56,1.21,15.86,15.86,0,0,0-5.21,3.37,14.86,14.86,0,0,0-3.42,5.12,16.9,16.9,0,0,0-1.21,6.47,18,18,0,0,0,1.32,7.13,14.4,14.4,0,0,0,3.62,5.13,15.92,15.92,0,0,0,5.24,3.09,18.34,18.34,0,0,0,6.22,1,17.07,17.07,0,0,0,2.59-.2,18.59,18.59,0,0,0,2.53-.6,16.53,16.53,0,0,0,2.44-1,2.42,2.42,0,0,0,1.39-1.76,2.75,2.75,0,0,0-.66-2.34A2.39,2.39,0,0,0,2524.41,721.83Z"/><path fill="#3c5cc9" d="M2556.43,700.67a15.13,15.13,0,0,0-22.23,0,16.2,16.2,0,0,0-3.21,5.22,18.39,18.39,0,0,0,0,12.75,16.26,16.26,0,0,0,3.21,5.21,14.77,14.77,0,0,0,4.9,3.54,15,15,0,0,0,6.19,1.27,15.2,15.2,0,0,0,6.22-1.27,14.85,14.85,0,0,0,4.92-3.54,16.26,16.26,0,0,0,3.21-5.21,18.39,18.39,0,0,0,0-12.75A16.2,16.2,0,0,0,2556.43,700.67Zm-2.8,17.13a10.08,10.08,0,0,1-3.38,3.94,9.21,9.21,0,0,1-9.92,0,9.86,9.86,0,0,1-3.35-3.94,13.31,13.31,0,0,1,0-11.09,9.86,9.86,0,0,1,3.35-3.92,9.16,9.16,0,0,1,9.92,0,10,10,0,0,1,3.38,3.94,13.07,13.07,0,0,1,0,11.07Z"/><polygon fill="#3c5cc9" points="2571.71 723.47 2571.71 722.97 2571.43 722.97 2571.71 723.47"/><polygon fill="#3c5cc9" points="2571.25 701.56 2571.71 701.56 2571.71 701.15 2571.25 701.56"/><path fill="#3c5cc9" d="M2589.81,701a12.21,12.21,0,0,0-4.3-3.44,13.25,13.25,0,0,0-5.83-1.23h-10.89a2.73,2.73,0,0,0-2.78,2.78v26.32a2.72,2.72,0,0,0,2.78,2.78h10.89a12.58,12.58,0,0,0,7.45-2.14,13.48,13.48,0,0,0,4.62-5.76,19.76,19.76,0,0,0,1.59-8,21,21,0,0,0-.88-6.17A15.47,15.47,0,0,0,2589.81,701Zm-3.23,16.58a8.55,8.55,0,0,1-2.66,3.92,7.26,7.26,0,0,1-4.7,1.48h-7.51v.5l-.27-.5h.27V701.56h-.46l.46-.41v.41h7.51a7.51,7.51,0,0,1,3.69.86,7.28,7.28,0,0,1,2.55,2.35,10.32,10.32,0,0,1,1.48,3.41,17,17,0,0,1,.48,4.08A16.2,16.2,0,0,1,2586.58,717.57Z"/><polygon fill="#3c5cc9" points="2604.05 714.54 2604.28 714.54 2604.28 714.17 2604.05 714.54"/><polygon fill="#3c5cc9" points="2603.86 701.56 2604.28 701.56 2604.28 700.79 2603.86 701.56"/><polygon fill="#3c5cc9" points="2604.28 723.38 2604.28 722.97 2603.91 722.97 2604.28 723.38"/><polygon fill="#3c5cc9" points="2604.28 709.67 2604.28 709.3 2603.91 709.3 2604.28 709.67"/><path fill="#3c5cc9" d="M2603.87,701.56l.4-.77v.77h12.35a2.88,2.88,0,0,0,2-.71,2.34,2.34,0,0,0,.8-1.84,2.56,2.56,0,0,0-.8-1.94,2.77,2.77,0,0,0-2-.75h-15.26a2.73,2.73,0,0,0-2.78,2.78v26.32a2.72,2.72,0,0,0,2.78,2.78h15.26a2.8,2.8,0,0,0,2-.73,2.4,2.4,0,0,0,.8-1.86,2.55,2.55,0,0,0-.8-1.85,2.68,2.68,0,0,0-2-.79h-12.35v.4l-.36-.4h.36v-8.43h-.22l.22-.37v.37h10.3a2.88,2.88,0,0,0,2-.71,2.34,2.34,0,0,0,.8-1.84,2.56,2.56,0,0,0-.8-1.94,2.77,2.77,0,0,0-2-.75h-10.3v.37l-.36-.37h.36v-7.74Z"/><path fill="#3c5cc9" d="M2448.12,766.06l1.22,0a13.11,13.11,0,0,1,.59-1.9c-.08.07-.17.12-.24.19A17.77,17.77,0,0,0,2448.12,766.06Z"/><path fill="#3c5cc9" d="M2461.85,765.26a11.26,11.26,0,0,0-3.19-2.26,8.35,8.35,0,0,0-3.53-.82,7.21,7.21,0,0,0-3.16.66,8.84,8.84,0,0,0-2,1.36,13.11,13.11,0,0,0-.59,1.9l-1.22,0a17.77,17.77,0,0,1,1.57-1.67c.07-.07.16-.12.24-.19a10.91,10.91,0,0,1,.76-1.58,13.5,13.5,0,0,1,2.23-2.89,14.53,14.53,0,0,1,2.82-2.17,14,14,0,0,1,3.08-1.34,3.59,3.59,0,0,0,1.75-1.07,2.58,2.58,0,0,0,.66-1.75,2.21,2.21,0,0,0-.84-2,3.42,3.42,0,0,0-1.89-.54,4.43,4.43,0,0,0-1.05.13,17,17,0,0,0-5.85,2.78,17.53,17.53,0,0,0-3.94,4.1,20.66,20.66,0,0,0-2.41,4.69,25.13,25.13,0,0,0-1.21,4.6,24.45,24.45,0,0,0-.34,3.73,14.3,14.3,0,0,0,.75,4.6,13.21,13.21,0,0,0,2.14,4,10.1,10.1,0,0,0,3.37,2.8,9.44,9.44,0,0,0,4.44,1,10.33,10.33,0,0,0,5.35-1.41,10.73,10.73,0,0,0,3.83-3.83,10.21,10.21,0,0,0,1.43-5.33,10,10,0,0,0-.86-4.12A11.19,11.19,0,0,0,2461.85,765.26Zm-3,10.32a5.26,5.26,0,0,1-1.85,2,5.07,5.07,0,0,1-5.24,0,5.16,5.16,0,0,1-1.84-2,5.84,5.84,0,0,1-.69-2.83,5.77,5.77,0,0,1,.69-2.84,5.17,5.17,0,0,1,1.84-2,5.07,5.07,0,0,1,5.24,0,5.27,5.27,0,0,1,1.85,2,5.87,5.87,0,0,1,.68,2.84A6,6,0,0,1,2458.87,775.58Z"/><polygon fill="#3c5cc9" points="2484.78 754.76 2484.22 755.99 2485.28 755.99 2484.78 754.76"/><path fill="#3c5cc9" d="M2488,751h-15.85a2.5,2.5,0,0,0-1.82.71,2.32,2.32,0,0,0-.73,1.75,2.49,2.49,0,0,0,2.55,2.55h12.1l.56-1.23.5,1.23h-1.06l-10.6,23.23a2.93,2.93,0,0,0-.27,1.23,2.43,2.43,0,0,0,.84,1.89,2.88,2.88,0,0,0,2,.75,2.7,2.7,0,0,0,1.48-.45,2.67,2.67,0,0,0,1-1.28l12-26.46a3.19,3.19,0,0,0,.27-1.23,2.43,2.43,0,0,0-.89-1.94A3.1,3.1,0,0,0,2488,751Z"/><path fill="#3c5cc9" d="M2513.25,777.85h-9.36l-.39.41-.5-.41h.89l5.76-6.15a28.47,28.47,0,0,0,2.82-3.59,17.61,17.61,0,0,0,1.94-3.85,11.59,11.59,0,0,0,.71-3.9,10.26,10.26,0,0,0-1.23-5.05,8.94,8.94,0,0,0-3.47-3.51,10.77,10.77,0,0,0-9.7-.23,13.91,13.91,0,0,0-4,2.78,13.68,13.68,0,0,0-1.29,1.5,2.57,2.57,0,0,0-.53,1.51,2.26,2.26,0,0,0,.85,1.75,2.7,2.7,0,0,0,1.84.75,3.21,3.21,0,0,0,1-.18,2.4,2.4,0,0,0,1.1-.91,9.1,9.1,0,0,1,2.41-2.35,5,5,0,0,1,2.69-.89,4.36,4.36,0,0,1,2.37.69,5.32,5.32,0,0,1,1.77,1.82,4.83,4.83,0,0,1,.69,2.55,7.28,7.28,0,0,1-1,3.44,17.8,17.8,0,0,1-2.64,3.62L2496,778.26a2.87,2.87,0,0,0-.82,2,2.58,2.58,0,0,0,.69,1.86,2.4,2.4,0,0,0,1.86.73h15.49a2.5,2.5,0,0,0,1.82-.7,2.34,2.34,0,0,0,.73-1.76,2.49,2.49,0,0,0-2.55-2.55Z"/><polygon fill="#3c5cc9" points="2503.5 778.26 2503.89 777.85 2503 777.85 2503.5 778.26"/><path fill="#3c5cc9" d="M2537.41,754.21a10.21,10.21,0,0,0-3.37-2.8,9.55,9.55,0,0,0-4.44-1,10.39,10.39,0,0,0-5.33,1.41,10.78,10.78,0,0,0-3.85,3.8,10.56,10.56,0,0,0-.57,9.48,11.38,11.38,0,0,0,2.3,3.37,11,11,0,0,0,3.19,2.25,8.23,8.23,0,0,0,3.53.82,7.18,7.18,0,0,0,3.21-.66,8.72,8.72,0,0,0,2-1.35,11,11,0,0,0,.56-1.9l1.24,0a21.1,21.1,0,0,1-1.53,1.64c-.08.08-.18.14-.27.22a11,11,0,0,1-1.39,2.6,14.1,14.1,0,0,1-3.44,3.37,14.6,14.6,0,0,1-4.08,2,3.63,3.63,0,0,0-1.75,1,2.54,2.54,0,0,0-.66,1.77,2.2,2.2,0,0,0,.84,2,3.22,3.22,0,0,0,1.89.57,4.37,4.37,0,0,0,1.05-.13,17.09,17.09,0,0,0,5.85-2.78,17.52,17.52,0,0,0,3.94-4.1,20.66,20.66,0,0,0,2.41-4.69,25.13,25.13,0,0,0,1.21-4.6,24.46,24.46,0,0,0,.34-3.74,14.25,14.25,0,0,0-.75-4.62A13.46,13.46,0,0,0,2537.41,754.21Zm-3.35,9.57a5.16,5.16,0,0,1-1.84,2,5,5,0,0,1-5.22,0,5.06,5.06,0,0,1-1.86-2,5.84,5.84,0,0,1-.69-2.83,5.77,5.77,0,0,1,.69-2.84,5.07,5.07,0,0,1,1.86-2,5,5,0,0,1,5.22,0,5.17,5.17,0,0,1,1.84,2,5.77,5.77,0,0,1,.69,2.84A5.84,5.84,0,0,1,2534.06,763.78Z"/><path fill="#3c5cc9" d="M2535.89,767.65l-1.24,0a11,11,0,0,1-.56,1.9c.09-.08.19-.14.27-.22A21.1,21.1,0,0,0,2535.89,767.65Z"/><g opacity=".8"><rect width="593.75" height="593.75" x="1315.19" y="1221.58" fill="#1642a4" rx="23.55"/><path fill="#fff" d="M1885.39,1218.58H1338.74a26.58,26.58,0,0,0-26.55,26.55v546.65a26.58,26.58,0,0,0,26.55,26.55h546.65a26.58,26.58,0,0,0,26.55-26.55V1245.13A26.58,26.58,0,0,0,1885.39,1218.58Zm20.55,573.2a20.57,20.57,0,0,1-20.55,20.55H1338.74a20.57,20.57,0,0,1-20.55-20.55V1245.13a20.57,20.57,0,0,1,20.55-20.55h546.65a20.57,20.57,0,0,1,20.55,20.55Z"/><path fill="#fff" d="M1885.39,1221.58H1338.74a23.62,23.62,0,0,0-23.55,23.55V1289h593.75v-43.82A23.62,23.62,0,0,0,1885.39,1221.58Z"/><path fill="#1642a4" d="M1365.24,1249.38a9.16,9.16,0,1,0,9.16,9.15A9.15,9.15,0,0,0,1365.24,1249.38Z"/><path fill="#1642a4" d="M1414.39,1249.38a9.16,9.16,0,1,0,9.16,9.15A9.16,9.16,0,0,0,1414.39,1249.38Z"/><path fill="#1642a4" d="M1463.54,1249.38a9.16,9.16,0,1,0,9.16,9.15A9.16,9.16,0,0,0,1463.54,1249.38Z"/><polygon fill="#709ae5" points="1388.85 1438.12 1389.52 1438.12 1389.52 1436.84 1388.85 1438.12"/><polygon fill="#709ae5" points="1389.52 1474.21 1389.52 1473.53 1388.92 1473.53 1389.52 1474.21"/><polygon fill="#709ae5" points="1389.15 1459.6 1389.52 1459.6 1389.52 1458.99 1389.15 1459.6"/><polygon fill="#709ae5" points="1389.52 1451.53 1389.52 1450.92 1388.92 1450.92 1389.52 1451.53"/><path fill="#709ae5" d="M1388.85,1438.12l.67-1.28v1.28H1410a4.73,4.73,0,0,0,3.27-1.17,3.89,3.89,0,0,0,1.32-3.06,4.21,4.21,0,0,0-1.32-3.2,4.61,4.61,0,0,0-3.27-1.24H1384.7a4.49,4.49,0,0,0-4.59,4.6v43.55a4.49,4.49,0,0,0,4.59,4.6H1410a4.63,4.63,0,0,0,3.27-1.21,4,4,0,0,0,1.32-3.08,4.2,4.2,0,0,0-1.32-3.06,4.46,4.46,0,0,0-3.27-1.32h-20.43v.68l-.6-.68h.6V1459.6h-.37l.37-.61v.61h17a4.77,4.77,0,0,0,3.28-1.18,3.86,3.86,0,0,0,1.32-3.05,4.21,4.21,0,0,0-1.32-3.2,4.59,4.59,0,0,0-3.28-1.25h-17v.61l-.6-.61h.6v-12.8Z"/><polygon fill="#709ae5" points="1460.36 1467.73 1459.08 1466.1 1459.08 1468.63 1460.36 1467.73"/><path fill="#709ae5" d="M1463.22,1429.45a3.9,3.9,0,0,0-3,1.21,4.2,4.2,0,0,0-1.13,3v32.43l1.28,1.63-1.28.9v-2.53l-27.43-35a3.16,3.16,0,0,0-1.66-1.24,6.28,6.28,0,0,0-2.19-.42,4.49,4.49,0,0,0-4.59,4.6V1478a4.2,4.2,0,0,0,1.13,3,3.82,3.82,0,0,0,2.94,1.21,4,4,0,0,0,3-1.21,4.15,4.15,0,0,0,1.17-3V1445.8l-2-2.49,2-1.2v3.69l27.65,35.12a3.41,3.41,0,0,0,1.55.94,6.17,6.17,0,0,0,2,.34,4.51,4.51,0,0,0,4.6-4.6v-43.93a4.24,4.24,0,0,0-1.13-3A3.82,3.82,0,0,0,1463.22,1429.45Z"/><polygon fill="#709ae5" points="1429.54 1443.31 1431.5 1445.8 1431.5 1442.11 1429.54 1443.31"/><rect width="9.8" height="4.23" x="1491.63" y="1433.89" fill="#709ae5"/><path fill="#709ae5" d="M1491.63,1477.6a4.4,4.4,0,0,0,1.35,3.28,4.79,4.79,0,0,0,3.47,1.32,5,5,0,0,0,3.58-1.32,4.33,4.33,0,0,0,1.4-3.28v-39.48h-9.8Z"/><path fill="#709ae5" d="M1513.25,1429.45H1479.8a4.76,4.76,0,0,0-3.28,1.17,4,4,0,0,0-1.32,3.13,4.08,4.08,0,0,0,1.32,3.16,4.7,4.7,0,0,0,3.28,1.21h11.83v-4.23h9.8v4.23h11.82a4.76,4.76,0,0,0,3.28-1.17,4,4,0,0,0,1.32-3.13,4.06,4.06,0,0,0-1.32-3.16A4.65,4.65,0,0,0,1513.25,1429.45Z"/><polygon fill="#709ae5" points="1534.51 1438.12 1535.18 1438.12 1535.18 1436.84 1534.51 1438.12"/><polygon fill="#709ae5" points="1535.18 1474.21 1535.18 1473.53 1534.58 1473.53 1535.18 1474.21"/><path fill="#709ae5" d="M1534.51,1438.12l.67-1.28v1.28h20.43a4.73,4.73,0,0,0,3.27-1.17,3.89,3.89,0,0,0,1.32-3.06,4.21,4.21,0,0,0-1.32-3.2,4.61,4.61,0,0,0-3.27-1.24h-25.25a4.49,4.49,0,0,0-4.59,4.6v43.55a4.49,4.49,0,0,0,4.59,4.6h25.25a4.63,4.63,0,0,0,3.27-1.21,4,4,0,0,0,1.32-3.08,4.2,4.2,0,0,0-1.32-3.06,4.46,4.46,0,0,0-3.27-1.32h-20.43v.68l-.6-.68h.6V1459.6h-.37l.37-.61v.61h17a4.75,4.75,0,0,0,3.28-1.18,3.86,3.86,0,0,0,1.32-3.05,4.21,4.21,0,0,0-1.32-3.2,4.58,4.58,0,0,0-3.28-1.25h-17v.61l-.6-.61h.6v-12.8Z"/><polygon fill="#709ae5" points="1534.81 1459.6 1535.18 1459.6 1535.18 1458.99 1534.81 1459.6"/><polygon fill="#709ae5" points="1535.18 1451.53 1535.18 1450.92 1534.58 1450.92 1535.18 1451.53"/><polygon fill="#709ae5" points="1577.16 1462.99 1578.29 1462.99 1578.29 1461.25 1577.16 1462.99"/><path fill="#709ae5" d="M1610.24,1474.82a2.63,2.63,0,0,1-1.32-1.51,9.41,9.41,0,0,1-.45-2.41c-.08-1-.22-2.06-.42-3.32a11.12,11.12,0,0,0-.94-3.8,12.78,12.78,0,0,0-2.18-3.32,12.27,12.27,0,0,0-2.09-1.8,14.89,14.89,0,0,1-1.5.86l.08-1.73a14.13,14.13,0,0,1,1.42.87,15.11,15.11,0,0,0,3-2.54,17.1,17.1,0,0,0,3.16-4.89,14,14,0,0,0,1.17-5.58,16.48,16.48,0,0,0-2.11-8.4,15.71,15.71,0,0,0-5.54-5.73,13.94,13.94,0,0,0-7.34-2.07h-21.71a4.51,4.51,0,0,0-4.59,4.6v43.55a4,4,0,0,0,1.66,3.28,5.87,5.87,0,0,0,3.76,1.32,3.54,3.54,0,0,0,2.94-1.32,5.1,5.1,0,0,0,1.06-3.28V1463h-1.13l1.13-1.74V1463h14.09a9.7,9.7,0,0,1,3,.41,5.25,5.25,0,0,1,2.11,1.21,5.37,5.37,0,0,1,1.28,1.88,6.17,6.17,0,0,1,.45,2.37,21.51,21.51,0,0,0,.8,6.41,10.55,10.55,0,0,0,4.63,6.18,7.87,7.87,0,0,0,2.11.71,6.54,6.54,0,0,0,2.57,0,3.66,3.66,0,0,0,2.1-1.24,3.49,3.49,0,0,0,.87-3.28A4.25,4.25,0,0,0,1610.24,1474.82Zm-10.7-24.23a9.5,9.5,0,0,1-2.11,3.39,3.81,3.81,0,0,1-2.64,1.24h-16.5V1457l-1.06-1.81h1.06v-17.1h-.91l.91-2.42v2.42h16.5a4.93,4.93,0,0,1,3.8,2.22,8.62,8.62,0,0,1,1.78,5.54A13,13,0,0,1,1599.54,1450.59Z"/><path fill="#709ae5" d="M1601.34,1459.52a14.89,14.89,0,0,0,1.5-.86,14.13,14.13,0,0,0-1.42-.87Z"/><polygon fill="#709ae5" points="1577.38 1438.12 1578.29 1438.12 1578.29 1435.7 1577.38 1438.12"/><polygon fill="#709ae5" points="1578.29 1457.03 1578.29 1455.22 1577.23 1455.22 1578.29 1457.03"/><path fill="#709ae5" d="M1677.34,1471.65a5.4,5.4,0,0,0-3.13.53,14,14,0,0,1-3.91,1.35,21.64,21.64,0,0,1-4.07.38,20.82,20.82,0,0,1-6.86-1.09,14.72,14.72,0,0,1-5.5-3.36,15.52,15.52,0,0,1-3.66-5.65,22,22,0,0,1-1.31-8,20.91,20.91,0,0,1,1.16-7.15,15.93,15.93,0,0,1,3.43-5.62,15.24,15.24,0,0,1,5.47-3.65,19.28,19.28,0,0,1,7.27-1.28,19,19,0,0,1,4.18.45,19.3,19.3,0,0,1,3.8,1.28,5.9,5.9,0,0,0,3.13.6,3.45,3.45,0,0,0,2.53-1.5,4.66,4.66,0,0,0,1.09-3.85,4,4,0,0,0-2.3-3.09,26.41,26.41,0,0,0-6-2.18,28,28,0,0,0-6.48-.76,28.94,28.94,0,0,0-10.86,2,25.94,25.94,0,0,0-8.62,5.58,24.91,24.91,0,0,0-5.66,8.47,28.11,28.11,0,0,0-2,10.7,29.82,29.82,0,0,0,2.18,11.8,23.81,23.81,0,0,0,6,8.48,26,26,0,0,0,8.66,5.12,30.29,30.29,0,0,0,10.29,1.73,27.79,27.79,0,0,0,4.29-.33,32.07,32.07,0,0,0,4.18-1,27,27,0,0,0,4-1.62,4,4,0,0,0,2.3-2.9,4.57,4.57,0,0,0-1.1-3.89A4,4,0,0,0,1677.34,1471.65Z"/><path fill="#709ae5" d="M1730.32,1436.65a24.48,24.48,0,0,0-8.14-5.84,24.83,24.83,0,0,0-10.29-2.11,24.43,24.43,0,0,0-18.35,8,26.74,26.74,0,0,0-5.31,8.63,30.54,30.54,0,0,0,0,21.1,26.81,26.81,0,0,0,5.31,8.62,25.07,25.07,0,0,0,36.78,0,27,27,0,0,0,5.31-8.62,30.54,30.54,0,0,0,0-21.1A26.92,26.92,0,0,0,1730.32,1436.65Zm-4.64,28.33a16.62,16.62,0,0,1-5.58,6.52,15.19,15.19,0,0,1-16.42,0,16.37,16.37,0,0,1-5.54-6.52,22,22,0,0,1,0-18.35,16.45,16.45,0,0,1,5.54-6.48,15.19,15.19,0,0,1,16.42,0,16.62,16.62,0,0,1,5.58,6.52,21.66,21.66,0,0,1,0,18.31Z"/><path fill="#709ae5" d="M1785.55,1437.18a20.17,20.17,0,0,0-7.12-5.7,22,22,0,0,0-9.65-2h-18a4.51,4.51,0,0,0-4.59,4.6v43.55a4.51,4.51,0,0,0,4.59,4.6h18a20.73,20.73,0,0,0,12.32-3.55,22.32,22.32,0,0,0,7.65-9.53,32.59,32.59,0,0,0,2.64-13.3,34.62,34.62,0,0,0-1.47-10.21A25.4,25.4,0,0,0,1785.55,1437.18Zm-5.35,27.43a14.13,14.13,0,0,1-4.41,6.48,11.93,11.93,0,0,1-7.76,2.44H1755.6v.83l-.45-.83h.45v-35.41h-.76l.76-.68v.68H1768a11.82,11.82,0,0,1,10.32,5.31,17.11,17.11,0,0,1,2.45,5.65,27.9,27.9,0,0,1,.79,6.74A26.74,26.74,0,0,1,1780.2,1464.61Z"/><polygon fill="#709ae5" points="1755.6 1474.36 1755.6 1473.53 1755.15 1473.53 1755.6 1474.36"/><polygon fill="#709ae5" points="1754.84 1438.12 1755.6 1438.12 1755.6 1437.44 1754.84 1438.12"/><polygon fill="#709ae5" points="1809.48 1474.21 1809.48 1473.53 1808.88 1473.53 1809.48 1474.21"/><polygon fill="#709ae5" points="1808.8 1438.12 1809.48 1438.12 1809.48 1436.84 1808.8 1438.12"/><polygon fill="#709ae5" points="1809.1 1459.6 1809.48 1459.6 1809.48 1458.99 1809.1 1459.6"/><polygon fill="#709ae5" points="1809.48 1451.53 1809.48 1450.92 1808.88 1450.92 1809.48 1451.53"/><path fill="#709ae5" d="M1808.8,1438.12l.68-1.28v1.28h20.42a4.73,4.73,0,0,0,3.27-1.17,3.89,3.89,0,0,0,1.32-3.06,4.21,4.21,0,0,0-1.32-3.2,4.61,4.61,0,0,0-3.27-1.24h-25.25a4.49,4.49,0,0,0-4.59,4.6v43.55a4.49,4.49,0,0,0,4.59,4.6h25.25a4.63,4.63,0,0,0,3.27-1.21,4,4,0,0,0,1.32-3.08,4.2,4.2,0,0,0-1.32-3.06,4.46,4.46,0,0,0-3.27-1.32h-20.42v.68l-.61-.68h.61V1459.6h-.38l.38-.61v.61h17a4.74,4.74,0,0,0,3.27-1.18,3.86,3.86,0,0,0,1.32-3.05,4.21,4.21,0,0,0-1.32-3.2,4.57,4.57,0,0,0-3.27-1.25h-17v.61l-.61-.61h.61v-12.8Z"/><rect width="472.15" height="115.38" x="1372.85" y="1537.12" fill="#fff" rx="12"/><rect width="60.22" height="9.7" x="1423.11" y="1622.6" fill="#1642a4" rx="1.87"/><rect width="60.22" height="9.7" x="1529.62" y="1622.6" fill="#1642a4" rx="1.87"/><rect width="60.22" height="9.7" x="1636.13" y="1622.6" fill="#1642a4" rx="1.87"/><rect width="60.22" height="9.7" x="1742.64" y="1622.6" fill="#1642a4" rx="1.87"/></g></g></svg>