<svg xmlns="http://www.w3.org/2000/svg" enable-background="new 0 0 3000 3000" viewBox="0 0 3000 3000"><ellipse cx="1636.6" cy="2908.5" fill="#ededed" rx="1313.8" ry="66.5"/><path fill="#363233" d="M1305.7,625.9h-44c-13.1,0-23.8-10.6-23.8-23.8V418.6c0-13.1,10.6-23.8,23.8-23.8h44V625.9z"/><path fill="#414143" d="M2520.5,2929.1H1495.9c-123.7,0-224-100.3-224-224V249c0-123.7,100.3-224,224-224h1024.7
						c123.7,0,224,100.3,224,224v2456.1C2744.5,2828.8,2644.2,2929.1,2520.5,2929.1z"/><path fill="#fabc3f" d="M1495.9,2878.7c-95.7,0-173.6-77.9-173.6-173.6V249c0-95.7,77.9-173.6,173.6-173.6h1024.6
						c95.7,0,173.6,77.9,173.6,173.6v2456.1c0,95.7-77.9,173.6-173.6,173.6H1495.9z"/><g><circle cx="2008.2" cy="185.2" r="69.9" fill="#363233"/><circle cx="2008.2" cy="185.2" r="45.3" fill="#414143"/><path fill="#585a5e" d="M2046.7,185.2c0,21.3-17.2,38.5-38.5,38.5c-21.3,0-38.5-17.2-38.5-38.5s17.2-38.5,38.5-38.5
					C2029.5,146.7,2046.7,164,2046.7,185.2z"/></g><g><path fill="#f4b037" d="M2350.2,1379.2h-700.7c-71.2,0-129-57.7-129-129v0c0-71.2,57.7-129,129-129h700.7c71.2,0,129,57.7,129,129
					v0C2479.2,1321.4,2421.5,1379.2,2350.2,1379.2z"/><path fill="#fff" d="M2366.8,1348.2h-700.7c-71.2,0-129-57.7-129-129v0c0-71.2,57.7-129,129-129h700.7c71.2,0,129,57.7,129,129
					v0C2495.7,1290.4,2438,1348.2,2366.8,1348.2z"/><circle cx="2228.7" cy="1219.2" r="51.9" fill="#f4b037"/><circle cx="2228.7" cy="1219.2" r="34.4" fill="#fffff9"/><circle cx="2087.2" cy="1219.2" r="51.9" fill="#f4b037"/><circle cx="2087.2" cy="1219.2" r="34.4" fill="#fffff9"/><g><circle cx="1945.7" cy="1219.2" r="51.9" fill="#fabc3f"/><circle cx="1945.7" cy="1219.2" r="34.4" fill="#fabc3f"/></g><g><circle cx="1804.2" cy="1219.2" r="51.9" fill="#fabc3f"/><circle cx="1804.2" cy="1219.2" r="34.4" fill="#fabc3f"/></g><g><path fill="#414143" d="M1629.6,771.6c0-97,54.1-154.2,132.2-154.2c78.1,0,132.2,57.5,132.2,154.2c0,97-54.1,156.6-132.2,156.6
					C1683.7,928.3,1629.6,868.7,1629.6,771.6z M1839.4,771.6c0-67.3-30.4-108-77.6-108c-47.1,0-77.6,40.7-77.6,108
					s30.5,110.4,77.6,110.4C1808.9,882,1839.4,838.9,1839.4,771.6z"/><path fill="#414143" d="M2003.1,667.7h-86.6v-44.7h226.3v44.7h-86.5v255.1h-53.2V667.7z"/><path fill="#414143" d="M2193,622.9h94.4c66.6,0,115.9,23.1,115.9,92.4c0,66.8-49.5,97.2-114,97.2h-43.1v110.2H2193V622.9z
					 M2284.9,770c44.8,0,66-17.8,66-54.6c0-37.2-23.3-49.9-67.8-49.9h-36.9V770H2284.9z"/></g><g><path fill="#e25651" d="M2016.5,2537.3c-466.2-148.8-385.3-679.4-385.3-679.4c157,3.3,157-147.1,157-147.1h456.3
					c0,0,0,150.4,157,147.1C2401.7,1857.8,2482.6,2388.5,2016.5,2537.3z"/><path fill="#fff" d="M2110.1,1803.5c-62.1-34.8-141-12.6-175.8,49.5l-39.4,70.3l22.2,12.4l39.4-70.3
						c27.9-49.7,91.2-67.6,141.1-39.6c49.9,28,67.7,91.3,39.8,141l-39.4,70.3l22.3,12.5l39.4-70.3
						C2194.5,1917.2,2172.2,1838.3,2110.1,1803.5z"/><path fill="#fff" d="M2183.7,2015.3h-334.4c-5.2,0-9.4,4.3-9.4,9.5v253.6c0,5.2,4.2,9.4,9.4,9.4h334.4c5.2,0,9.4-4.2,9.4-9.4
					v-253.6C2193,2019.5,2188.8,2015.3,2183.7,2015.3z M2036.5,2144.8v74.4c0,11.1-8.9,20-20,20c-11.1,0-20-8.9-20-20v-74.4
					c-13.7-7.2-23-21.6-23-38.1c0-6.6,1.5-13,4.3-18.5c6.8-14.5,21.6-24.5,38.8-24.5c17.1,0,31.9,10.1,38.8,24.5
					c2.7,5.5,4.3,11.8,4.3,18.5C2059.5,2123.3,2050.2,2137.7,2036.5,2144.8z"/></g></g><g><rect width="93.5" height="91.9" x="925.8" y="2699.9" fill="#fdbab3" transform="rotate(-90 972.563 2745.894)"/><path fill="#2a2a2c" d="M1221.6,2855.5c0,0,12,64-120.5,51.4c-13-1.2-25.8-3.7-38.4-7.2c-18-5-47.6-11.3-68.5-13.1l-0.9,21.5
					l-79.1-4.4c-8.4-0.8-14.7-8-14.4-16.4l4-48c0,0,133,3.9,135.2,4.9c2.2,1,115.1,25.3,115.1,25.3L1221.6,2855.5z"/><path fill="#414143" d="M1156.9,2897.8l-4.3,0.2c-13.5,0.6-29.7,0.2-48.9-1.7c-12.9-1.2-25.8-3.7-38.4-7.2
					c-18-5-47.7-12.7-68.6-14.4c0,0-15.8-0.3-34.3-1.3c-1.4-0.1-2.7-0.2-4-0.2c-3.1-0.2-6.4-0.3-9.6-0.6c-1.4-0.1-2.7-0.2-4.1-0.2
					c-2.5-0.2-4.9-0.3-7.3-0.6c-1.4-0.2-2.7-0.2-4.1-0.4c-17-1.5-30.7-3.8-30.6-6.9c-1.2-12.6-1.6-25.2-1-37.7
					c0.6-15,2.7-29.9,6.1-44.8c2.3-9.9,11.6-16.6,21.8-15.4l72.1,8.3c5.6,0.6,10.9-1.3,14.9-5c0.4-0.5,0.8-0.9,1.2-1.4l0.2-0.2
					l1-1.3l0.1-0.2l0.2-0.2l2.6-3l0.1-0.1l2.6-3l0.2-0.2c3.3-3.9,9.3-3.9,12.6-0.1c14,16,29,30.5,45,43.4
					c20.5,16.7,45,27.9,70.9,32.5c1.4,0.2,3,0.5,4.5,0.7c5.6,0.8,11.3,1.4,17.1,1.5c47.6,1.5,46.9,17.2,46.9,17.2
					S1231.9,2893.2,1156.9,2897.8z"/><path fill="#c6c7cd" d="M1014.2,2776c-0.2,2.3,1.6,4.4,3.9,4.6c2.4,0.2,4.4-1.6,4.6-3.9c0.2-2.3-1.6-4.4-3.9-4.6
						C1016.5,2771.9,1014.4,2773.7,1014.2,2776z"/><path fill="#2a2a2c" d="M1018.4,2778.4c0.6,0,1.2-0.1,1.6-0.6l17.3-16.9c0.8-0.8,0.9-2.1,0.1-2.9c-0.8-0.8-2.1-0.8-3,0
							l-17.3,16.9c-0.8,0.8-0.9,2.1,0,2.9C1017.4,2778.2,1017.9,2778.4,1018.4,2778.4z"/><path fill="#c6c7cd" d="M1024.6,2784.2c-0.2,2.3,1.6,4.4,3.9,4.6c2.4,0.2,4.4-1.6,4.6-3.9c0.2-2.3-1.6-4.4-3.9-4.6
						C1026.8,2780.1,1024.8,2781.8,1024.6,2784.2z"/><path fill="#2a2a2c" d="M1028.7,2786.6c0.6,0,1.2-0.1,1.6-0.6l16.1-16c0.8-0.8,0.9-2.1,0-2.9c-0.8-0.8-2.1-0.8-3,0l-16.1,16
							c-0.8,0.8-0.9,2.1,0,2.9C1027.7,2786.3,1028.2,2786.5,1028.7,2786.6z"/><path fill="#c6c7cd" d="M1034.9,2792.9c-0.2,2.3,1.6,4.4,3.9,4.6c2.4,0.2,4.4-1.6,4.6-3.9c0.2-2.3-1.6-4.4-3.9-4.6
						C1037.2,2788.8,1035.1,2790.5,1034.9,2792.9z"/><path fill="#2a2a2c" d="M1039,2795.3c0.6,0,1.2-0.1,1.6-0.6l15.4-15.4c0.8-0.8,0.9-2.1,0-2.9c-0.8-0.8-2.1-0.8-3,0l-15.4,15.4
							c-0.8,0.8-0.9,2.1,0,2.9C1038.1,2795,1038.5,2795.2,1039,2795.3z"/><path fill="#c6c7cd" d="M1044.6,2801.7c-0.1,2.4,1.8,4.3,4.1,4.4c2.4,0.1,4.4-1.8,4.4-4.1c0.1-2.4-1.8-4.3-4.1-4.4
						C1046.6,2797.5,1044.6,2799.4,1044.6,2801.7z"/><path fill="#2a2a2c" d="M1048.8,2803.9c0.6,0,1.2-0.2,1.6-0.6l14.4-15.4c0.8-0.8,0.8-2.1-0.1-2.9c-0.8-0.8-2.2-0.8-3,0.1
							l-14.4,15.4c-0.8,0.8-0.8,2.1,0.1,2.9C1047.8,2803.7,1048.3,2803.9,1048.8,2803.9z"/><path fill="#c6c7cd" d="M1055.3,2809.4c-0.1,2.4,1.8,4.3,4.1,4.4c2.4,0.1,4.4-1.8,4.4-4.1c0.1-2.4-1.8-4.3-4.1-4.4
						S1055.3,2807,1055.3,2809.4z"/><path fill="#2a2a2c" d="M1059.5,2811.6c0.6,0,1.2-0.2,1.6-0.6l13.9-14.8c0.8-0.8,0.8-2.1-0.1-2.9c-0.8-0.8-2.2-0.8-3,0.1
							l-13.9,14.8c-0.8,0.8-0.8,2.1,0.1,2.9C1058.5,2811.4,1059,2811.6,1059.5,2811.6z"/><path fill="#c6c7cd" d="M1066,2817.6c-0.1,2.4,1.8,4.3,4.1,4.4c2.4,0.1,4.4-1.8,4.4-4.1s-1.8-4.3-4.1-4.4
						C1068,2813.4,1066,2815.3,1066,2817.6z"/><path fill="#2a2a2c" d="M1070.2,2819.9c0.6,0,1.2-0.2,1.6-0.6l13.4-13.9c0.8-0.8,0.8-2.1-0.1-2.9c-0.8-0.8-2.2-0.8-3,0.1
							l-13.4,13.9c-0.8,0.8-0.8,2.1,0.1,2.9C1069.2,2819.7,1069.7,2819.8,1070.2,2819.9z"/><path fill="#2a2a2c" d="M1088.2,2828c0.1,7.3-3.1,14.2-8.6,18.9c-5.8,4.9-13.4,6.9-20.9,5.4l-69.9-13.9c-5.7-1.1-11.6,0.2-16.2,3.6
					c-4.7,3.4-7.7,8.6-8.4,14.3l-1.8,17.2c-1.4-0.1-2.7-0.2-4-0.2l1.9-17.3c0.8-6.8,4.4-13.1,10-17.2c5.5-4,12.6-5.6,19.5-4.2
					l69.9,13.9c6.3,1.3,12.6-0.4,17.5-4.5c4.7-3.9,7.2-9.7,7.2-15.8c-0.1-6.1-2.9-11.8-7.7-15.6l-57.2-45.8l2.6-3l57.2,45.7
					C1084.7,2813.9,1088.1,2820.8,1088.2,2828z"/><rect width="93.5" height="91.9" x="583.6" y="2699.9" fill="#fdbab3" transform="rotate(-90 630.394 2745.894)"/><path fill="#2a2a2c" d="M879.5,2855.5c0,0,12,64-120.5,51.4c-13-1.2-25.8-3.7-38.4-7.2c-18-5-47.6-11.3-68.5-13.1l-0.9,21.5
					l-79.1-4.4c-8.4-0.8-14.7-8-14.4-16.4l4-48c0,0,133,3.9,135.2,4.9c2.2,1,115.1,25.3,115.1,25.3L879.5,2855.5z"/><path fill="#414143" d="M814.7,2897.8l-4.3,0.2c-13.5,0.6-29.7,0.2-48.9-1.7c-13-1.2-25.8-3.7-38.4-7.2c-18-5-47.7-12.7-68.6-14.4
					c0,0-15.8-0.3-34.3-1.3c-1.4-0.1-2.7-0.2-4-0.2c-3.1-0.2-6.4-0.3-9.6-0.6c-1.4-0.1-2.7-0.2-4.1-0.2c-2.5-0.2-4.9-0.3-7.3-0.6
					c-1.4-0.2-2.7-0.2-4.1-0.4c-17-1.5-30.7-3.8-30.6-6.9c-1.2-12.6-1.6-25.2-1-37.7c0.6-15,2.7-29.9,6.1-44.8
					c2.3-9.9,11.6-16.6,21.8-15.4l72.1,8.3c5.6,0.6,10.9-1.3,14.9-5c0.4-0.5,0.8-0.9,1.2-1.4l0.2-0.2l1-1.3l0.1-0.2l0.2-0.2l2.6-3
					l0.1-0.1l2.6-3l0.2-0.2c3.3-3.9,9.3-3.9,12.6-0.1c14,16,29,30.5,45,43.4c20.5,16.7,45,27.9,70.9,32.5c1.4,0.2,3,0.5,4.5,0.7
					c5.6,0.8,11.3,1.4,17.1,1.5c47.6,1.5,46.9,17.2,46.9,17.2S889.7,2893.2,814.7,2897.8z"/><path fill="#c6c7cd" d="M672.1,2776c-0.2,2.3,1.6,4.4,3.9,4.6c2.4,0.2,4.4-1.6,4.6-3.9c0.2-2.3-1.6-4.4-3.9-4.6
						C674.3,2771.9,672.3,2773.7,672.1,2776z"/><path fill="#2a2a2c" d="M676.2,2778.4c0.6,0,1.2-0.1,1.6-0.6l17.3-16.9c0.8-0.8,0.9-2.1,0-2.9c-0.8-0.8-2.1-0.8-3,0l-17.3,16.9
							c-0.8,0.8-0.9,2.1-0.1,2.9C675.2,2778.2,675.7,2778.4,676.2,2778.4z"/><path fill="#c6c7cd" d="M682.4,2784.2c-0.2,2.3,1.6,4.4,3.9,4.6c2.4,0.2,4.4-1.6,4.6-3.9c0.2-2.3-1.6-4.4-3.9-4.6
						C684.7,2780.1,682.6,2781.8,682.4,2784.2z"/><path fill="#2a2a2c" d="M686.5,2786.6c0.6,0,1.2-0.1,1.6-0.6l16.1-16c0.8-0.8,0.9-2.1,0-2.9c-0.8-0.8-2.1-0.8-3,0l-16.1,16
							c-0.8,0.8-0.9,2.1-0.1,2.9C685.6,2786.3,686,2786.5,686.5,2786.6z"/><g><path fill="#c6c7cd" d="M692.8,2792.9c-0.2,2.3,1.6,4.4,3.9,4.6c2.4,0.2,4.4-1.6,4.6-3.9c0.2-2.3-1.6-4.4-3.9-4.6
						C695,2788.8,692.9,2790.5,692.8,2792.9z"/><path fill="#2a2a2c" d="M696.9,2795.3c0.6,0,1.2-0.1,1.6-0.6l15.4-15.4c0.8-0.8,0.9-2.1,0-2.9c-0.8-0.8-2.1-0.8-3,0l-15.4,15.4
							c-0.8,0.8-0.9,2.1-0.1,2.9C695.9,2795,696.4,2795.2,696.9,2795.3z"/></g><g><path fill="#c6c7cd" d="M702.4,2801.7c-0.1,2.4,1.8,4.3,4.1,4.4c2.4,0.1,4.4-1.8,4.4-4.1c0.1-2.4-1.8-4.3-4.1-4.4
						C704.5,2797.5,702.5,2799.4,702.4,2801.7z"/><path fill="#2a2a2c" d="M706.6,2803.9c0.6,0,1.2-0.2,1.6-0.6l14.4-15.4c0.8-0.8,0.8-2.1-0.1-2.9c-0.8-0.8-2.2-0.8-3,0.1
							l-14.4,15.4c-0.8,0.8-0.8,2.1,0.1,2.9C705.6,2803.7,706.1,2803.9,706.6,2803.9z"/><path fill="#c6c7cd" d="M713.1,2809.4c-0.1,2.4,1.8,4.3,4.1,4.4c2.4,0.1,4.4-1.8,4.4-4.1c0.1-2.4-1.8-4.3-4.1-4.4
						C715.2,2805.2,713.2,2807,713.1,2809.4z"/><path fill="#2a2a2c" d="M717.3,2811.6c0.6,0,1.2-0.2,1.6-0.6l13.9-14.8c0.8-0.8,0.8-2.1-0.1-2.9c-0.8-0.8-2.2-0.8-3,0.1
							l-13.9,14.8c-0.8,0.8-0.8,2.1,0.1,2.9C716.3,2811.4,716.8,2811.6,717.3,2811.6z"/><g><path fill="#c6c7cd" d="M723.8,2817.6c-0.1,2.4,1.8,4.3,4.1,4.4c2.4,0.1,4.4-1.8,4.4-4.1c0.1-2.4-1.8-4.3-4.1-4.4
						C725.9,2813.4,723.9,2815.3,723.8,2817.6z"/><path fill="#2a2a2c" d="M728,2819.9c0.6,0,1.2-0.2,1.6-0.6l13.4-13.9c0.8-0.8,0.8-2.1-0.1-2.9c-0.8-0.8-2.2-0.8-3,0.1l-13.4,13.9
							c-0.8,0.8-0.8,2.1,0.1,2.9C727,2819.7,727.5,2819.8,728,2819.9z"/></g></g><g><path fill="#2a2a2c" d="M746,2828c0.1,7.3-3.1,14.2-8.6,18.9c-5.8,4.9-13.4,6.9-20.9,5.4l-69.9-13.9c-5.7-1.1-11.6,0.2-16.2,3.6
					c-4.7,3.4-7.7,8.6-8.4,14.3l-1.9,17.2c-1.4-0.1-2.7-0.2-4-0.2l1.9-17.3c0.8-6.8,4.4-13.1,10-17.2c5.5-4,12.6-5.6,19.5-4.2
					l69.9,13.9c6.3,1.3,12.6-0.4,17.5-4.5c4.7-3.9,7.2-9.7,7.2-15.8c-0.1-6.1-2.9-11.8-7.7-15.6l-57.2-45.8l2.6-3l57.2,45.7
					C742.6,2813.9,745.9,2820.8,746,2828z"/></g><g><path fill="#414143" d="M576.1,1516.1c-30.5,181.3,0.9,359.3,16.7,607.6L562.1,2733h138l75.6-577.8l29-237.8l56.7,206.2l46,609.3
				h136.6l3.3-632.8c-23.1-206.6-54-403.8-97.7-585.9L576.1,1516.1z"/></g><path fill="#fdbab3" d="M1395.9,1280.7l78.9,12.7c8.6,1.4,17,3.5,25.3,6.2c25.1,8.2,91,21.5,122.1-50.2c4.8-11-4.7-22.9-16.5-20.4
			c-21,4.5-57.4,9.7-69.6-1.5l24.7-24c4.6-4.5,4.5-11.9-0.3-16.2l0,0c-3.7-3.4-9.3-3.8-13.5-1.2l-34.9,21.7
			c-8.5,5.3-18.5,7.8-28.6,7.1l-73.8-5.1"/><path fill="#585a5e" d="M817.2,1191l244.5,81.2c11.3,3.8,23,6.3,34.9,7.5l379.7,24.2l14.1-97.4l-367.6-54
			c-16.6-3.3-32.4-9.5-46.8-18.3L856.5,982.8l-23,19.6l-53.9,122L817.2,1191z"/><rect width="102.6" height="181.7" x="699.1" y="854.2" fill="#fdbab3"/><path fill="#fdbab3" d="M876.1,826.3c11.7,76.5-43,123.8-96.5,123.8c-53.5,0-97.3-54.3-97.3-123.8c0-69.5,43.4-125.9,96.9-125.9
			S865.5,757.5,876.1,826.3z"/><path fill="#414143" d="M825.9,693.7c-43.2-34.5-80.1-3.3-80.1-3.3c-63.5-17.5-73.7,51.9-73.7,51.9c-72.7-1.9,27,173.4,27,173.4
			l6.8-23.4c3.4-12,2.9-25-2.2-36.4c-9.7-22.1-12.1-49.1,11-52.8c20.1-3.2,30.8,26.7,34.8,41.2c1.1,4.2,5.4,6.6,9.6,5.6l0,0
			c4-1,6.6-4.8,5.9-8.9l-9-58.1c28.6,8.5,85.2-1.9,97.4-6.3c0,0,52.4-16,43.5-70.9c0,0-6.9,13.9-35.3,14.9c0,0,23.5-5.3,20.6-38.6
			C882.3,681.9,851.3,713.9,825.9,693.7z"/><path fill="#e5e5e5" d="M887.8,1302.6c0,3.3,0,366.7,0,366.7c-113.2,53.6-216.6,13.8-216.4,14.6l5.5-617.8l22.4-105.6l80.3,53.1
			l50.4-41.8l32.4,28.2l6.7,144.2C869,1144.3,887.8,1299.3,887.8,1302.6z"/><path fill="#585a5e" d="M538.2,1709.5c-3.2,13.7-0.2,27.7,13.5,31.3c0,0,262.7,31,232.2-286.3l-14.7-321.7
			c0-59.4-18.9-121.2-62.8-161.5l-7.3-10.8l-54.4,22.6c-59.8,28.8-96.4,90.4-92.7,156.3l0.6,123.2
			C557.7,1364.2,545.3,1679.3,538.2,1709.5z"/><path fill="#585a5e" d="M801.7,964.4l28.2,7.5c43.7,12.7,78.5,47.1,78.5,91.2v75.7c0,45.9,3,91.7,9,137.1l75.8,358.2
			c2.1,15.9-5.4,22.3-24,33.2l-111.4,46.2c-11.8,2.8-21.5-9.5-15.7-20.2l0,0c21-39,29.9-122.9,25.6-166.8l-25.1-256
			c-2.2-22.7-3.6-45.5-4.1-68.3L801.7,964.4z"/><polygon fill="#c6c7cd" points="801.7 964.4 812.2 1032.2 751.2 1037.6 699.2 960.6 779.5 1013.7"/><path fill="#414143" d="M876.9,860.7L876.9,860.7L769.7,855l-6.6-27.2l-17.3,5l14.8,77.4c4.7,24.7,28.3,41.3,53.3,37.4l0,0
			C855.2,941.3,881.4,901.9,876.9,860.7z"/><path fill="#e25651" d="M779.5,1013.7l13,15.8l-4.7,19.1l4.7,38.9c13.2,108.4,76,204.7,170.3,261.1l17.2,10.3
			c51.9,31.1,94.8,75.1,124.3,127.6l36.6,65.2l-27.2,49.5l-55.4-22.5l-44.3-79.2c-20-35.7-46.8-67.2-79-92.6l-33.5-26.5
			c-84.9-67.1-134.4-168.9-134.6-276.5l-0.1-53.7l-2-22L779.5,1013.7z"/><g><path fill="#414143" d="M266.3,1825.6l22.7,5.4l13.5-56.2c0.1-0.3,0.3-0.4,0.6-0.4l116.3,27.6c0.3,0.1,0.4,0.3,0.4,0.6l-13.5,56.2
						l22.7,5.4l13.5-56.2c3.1-12.7-4.9-25.4-17.6-28.5l-116.3-27.6c-12.8-3-25.7,4.8-28.7,17.5L266.3,1825.6z"/><path fill="#e2e2e2" d="M395.5,1870.8l37.5,8.9l5.8-23.9c0.5-2-0.8-4-2.8-4.5l-30.2-7.2c-2-0.5-4,0.8-4.5,2.8L395.5,1870.8z"/><path fill="#c6c7cd" d="M401.3,1846.8l-5.8,24l5.7,1.3l5.8-24c0.5-2,2.5-3.2,4.5-2.8l-5.7-1.3
							C403.8,1843.6,401.8,1844.8,401.3,1846.8z"/><g><path fill="#e2e2e2" d="M255.5,1837.6l37.5,8.9l5.8-23.9c0.5-2-0.8-4-2.8-4.5l-30.2-7.2c-2-0.5-4,0.8-4.5,2.8L255.5,1837.6z"/><path fill="#c6c7cd" d="M261.3,1813.6l-5.8,24l5.7,1.3l5.8-24c0.5-2,2.5-3.2,4.5-2.8l-5.7-1.3
							C263.8,1810.4,261.8,1811.6,261.3,1813.6z"/></g><g><path fill="#585a5e" d="M88.2,1911.9L50.1,2070c-1.9,8,3.1,16.1,11.2,18.1L492,2190.3c8.1,1.9,16.3-3,18.2-11.1l38.1-158.1
					L88.2,1911.9z"/><path fill="#585a5e" d="M107.7,1795.3L76.9,1923c-1.3,5.5,2.1,11,7.6,12.3L541,2043.6c5.5,1.3,11.1-2.1,12.4-7.6l30.8-127.6
						c1-4-1.5-8.1-5.6-9l-461.8-109.6C112.7,1788.8,108.6,1791.3,107.7,1795.3z"/><polygon fill="#414143" points="82.7 1934.9 79.9 1946.3 540 2055.5 542.8 2044"/></g></g><g><path fill="#e0e0e0" d="M426.5,2054.5l30.3,7.2c2.6,0.6,5.1-1,5.7-3.5l11.2-46.5c0.6-2.5-1-5.1-3.5-5.7l-30.3-7.2
					c-2.6-0.6-5.1,1-5.7,3.5l-11.2,46.5C422.3,2051.3,423.9,2053.9,426.5,2054.5z"/><path fill="#414143" d="M437.4,2039.2c-1.1,4.5,1.7,9.1,6.3,10.2s9.2-1.7,10.3-6.3c1.1-4.5-1.7-9.1-6.3-10.2
					C443.1,2031.9,438.5,2034.7,437.4,2039.2z"/><g><path fill="#e0e0e0" d="M151.4,1989.2l30.3,7.2c2.6,0.6,5.1-1,5.7-3.5l11.2-46.5c0.6-2.5-1-5.1-3.5-5.7l-30.3-7.2
					c-2.6-0.6-5.1,1-5.7,3.5l-11.2,46.5C147.2,1986.1,148.8,1988.6,151.4,1989.2z"/><path fill="#414143" d="M162.3,1973.9c-1.1,4.5,1.7,9.1,6.3,10.2c4.6,1.1,9.2-1.7,10.3-6.3c1.1-4.5-1.7-9.1-6.3-10.2
					C168,1966.6,163.4,1969.4,162.3,1973.9z"/></g></g><path fill="#fdbab3" d="M359.5,1627.6l-18.3,77.2c-2,8.4-4.8,16.6-8,24.5c-10,24.3-29.6,66.4,40.3,102.2c10.7,5.5,23.4-3,21.7-14.8
			c-3-21.1-4.1-35.4,8-46.7l22.4,26.1c4.2,4.9,11.7,5.3,16.4,0.8l0,0c3.6-3.5,4.5-8.9,2.2-13.3l-19.4-36.1
			c-4.7-8.8-6.5-18.9-5.1-28.8l10.3-72.7"/><path fill="#585a5e" d="M332.6,1698.1c0,0,79.1-403.8,85.6-416.5c73.4-143.4,178.9-261.9,178.9-261.9l108.6,65.8l15.5,75.5
			l-181.4,185.1c-8.1,6.5-105.8,387.6-105.8,387.6L332.6,1698.1z"/></g></svg>